<?xml version="1.0" encoding="UTF-8"?>
<svg version="1.1" xmlns="http://www.w3.org/2000/svg" width="4116" height="2135">
<path d="M0 0 C1.12943684 0.90579457 2.2329665 1.84434918 3.31640625 2.8046875 C4.06005149 3.27672859 4.80369673 3.74876968 5.56987667 4.23511505 C9.6558343 7.13104288 11.96973816 9.34561079 13.14959908 14.31147766 C13.58282508 18.76488927 13.49648852 23.21709365 13.42993164 27.68554688 C13.43726245 29.40101157 13.44854643 31.11646322 13.46347046 32.83187866 C13.49270223 37.4723786 13.46683746 42.11110991 13.43088078 46.75150108 C13.4026925 51.60691192 13.42544534 56.46208138 13.44273376 61.31750488 C13.46773608 70.50439347 13.44710001 79.69058674 13.40996021 88.87741137 C13.3698954 99.33937639 13.38087012 109.80109458 13.39607632 120.26310253 C13.42620577 141.77717225 13.39242086 163.29074812 13.31640625 184.8046875 C13.8489502 183.73742432 14.38149414 182.67016113 14.93017578 181.57055664 C15.64483626 180.13947543 16.35951841 178.70840505 17.07421875 177.27734375 C17.42331299 176.57758423 17.77240723 175.87782471 18.13208008 175.15686035 C46.27936816 118.81347386 90.75238061 75.26916533 144.31640625 42.8046875 C144.9619043 42.40830078 145.60740234 42.01191406 146.27246094 41.60351562 C192.21193283 13.59815347 246.81621437 1.60114453 300.19140625 1.5546875 C301.25624237 1.55367538 301.25624237 1.55367538 302.34259033 1.55264282 C330.12785864 1.59412494 364.75422472 4.02419165 386.41796875 23.71484375 C394.73976606 32.62093747 396.31640625 41.85778695 396.31640625 53.8046875 C413.08176715 46.5884561 429.80273129 39.28027819 446.47421265 31.84973145 C458.56274054 26.46244746 470.6690548 21.11822613 482.80908203 15.84790039 C489.2946298 13.02843148 495.75154549 10.1605785 502.171875 7.1953125 C503.43074644 6.61846196 504.68977651 6.04195746 505.94897461 5.46582031 C508.30354115 4.38459802 510.65239312 3.29081408 512.99438477 2.18261719 C514.55370728 1.46960449 514.55370728 1.46960449 516.14453125 0.7421875 C517.50433105 0.10603516 517.50433105 0.10603516 518.89160156 -0.54296875 C521.31640625 -1.1953125 521.31640625 -1.1953125 523.46704102 -0.44946289 C526.11060625 1.34327567 528.54852056 3.32485734 531.00390625 5.3671875 C531.97714844 6.17285156 532.95039063 6.97851562 533.953125 7.80859375 C536.31640625 9.8046875 536.31640625 9.8046875 537.31640625 10.8046875 C537.42575504 13.04462937 537.46333918 15.28807394 537.47462463 17.53065491 C537.47956261 18.24204744 537.48450059 18.95343998 537.4895882 19.68638986 C537.50503721 22.08788048 537.51334372 24.48934421 537.52172852 26.89086914 C537.53130124 28.60528299 537.54131095 30.31969446 537.55172729 32.03410339 C537.57884816 36.70330152 537.59981871 41.37250983 537.61972928 46.04174352 C537.6415447 50.91582311 537.66895505 55.78987107 537.69578552 60.66392517 C537.7457727 69.90035886 537.7906891 79.13681005 537.83380789 88.37327808 C537.88312888 98.88581862 537.938066 109.39832742 537.99348748 119.91083729 C538.10739998 141.54209115 538.21421873 163.17337529 538.31640625 184.8046875 C539.13894646 183.15627617 539.13894646 183.15627617 539.97810364 181.4745636 C540.7051898 180.01859528 541.43229767 178.5626378 542.15942383 177.10668945 C542.51994087 176.38405159 542.88045792 175.66141373 543.25189972 174.91687775 C555.03175642 151.33657093 569.39893469 129.45113808 587.28125 110.0234375 C589.11185045 108.02769651 590.87477108 105.99238139 592.62890625 103.9296875 C595.83189171 100.25834096 599.20755713 96.77120797 602.62890625 93.3046875 C603.15718018 92.76344238 603.6854541 92.22219727 604.22973633 91.66455078 C605.55309477 90.33798808 606.93087413 89.0661735 608.31640625 87.8046875 C608.97640625 87.8046875 609.63640625 87.8046875 610.31640625 87.8046875 C610.31640625 87.1446875 610.31640625 86.4846875 610.31640625 85.8046875 C632.71443693 61.94591569 665.37907877 44.09135547 694.31640625 29.8046875 C695.4451416 29.24273682 695.4451416 29.24273682 696.59667969 28.66943359 C736.2218806 9.20394186 781.35294769 1.59284389 825.19140625 1.5546875 C826.25624237 1.55367538 826.25624237 1.55367538 827.34259033 1.55264282 C855.12391115 1.59411905 890.84917427 3.98745778 912.19140625 24.2421875 C919.29526193 31.88092173 921.54035613 40.18156247 921.43701172 50.43164062 C920.21627318 74.45103059 906.79140438 97.11259569 890.31640625 113.8046875 C889.25873047 114.98804688 889.25873047 114.98804688 888.1796875 116.1953125 C873.81142284 131.84987895 850.57912923 141.97971347 829.5222168 142.9309082 C781.67509748 144.09144124 735.76636398 130.9618926 690.12890625 117.9921875 C688.55653198 117.54678116 688.55653198 117.54678116 686.95239258 117.09237671 C676.04153583 113.99595299 665.17940929 110.81877508 654.4140625 107.24609375 C652.74448039 106.70063497 651.07480544 106.15546024 649.4050293 105.6105957 C646.33447077 104.60718797 643.28579048 103.55729893 640.24145508 102.47729492 C633.6683677 99.96501237 633.6683677 99.96501237 626.984375 100.73974609 C625.1361322 102.29489069 623.76797105 103.88078384 622.31640625 105.8046875 C621.08664062 106.86042969 621.08664062 106.86042969 619.83203125 107.9375 C594.26920694 130.41515586 573.39116397 160.93787342 559.31640625 191.8046875 C558.95595215 192.5874707 558.59549805 193.37025391 558.22412109 194.17675781 C545.82950808 221.33189207 538.13351363 248.99048154 538.18942261 278.95379639 C538.18786262 280.24791042 538.18630263 281.54202445 538.18469536 282.87535405 C538.180544 286.44335467 538.1825738 290.01132833 538.18568158 293.57932901 C538.18795308 297.43797895 538.18444707 301.2966244 538.18170166 305.15527344 C538.17726116 312.71054399 538.17821353 320.26580459 538.1811143 327.82107553 C538.18337842 333.97523333 538.18367647 340.12938835 538.18259048 346.28354645 C538.18243725 347.16164546 538.18228402 348.03974447 538.18212614 348.94445254 C538.18180638 350.72890526 538.18148217 352.51335798 538.18115355 354.2978107 C538.17830293 371.02817262 538.1815775 387.75852906 538.18695392 404.48889008 C538.19140597 418.78328626 538.19065847 433.07767429 538.18603516 447.37207031 C538.18065496 464.01411169 538.17859394 480.65614823 538.18164742 497.29819036 C538.18196592 499.08196465 538.18228029 500.86573895 538.18259048 502.64951324 C538.18274476 503.52685729 538.18289904 504.40420133 538.18305799 505.30813156 C538.18391403 511.43066994 538.18247981 517.55320521 538.18011093 523.6757431 C538.17727359 531.17353638 538.17813188 538.67131922 538.18339168 546.16911134 C538.18597899 549.98040469 538.18712108 553.79168081 538.18374252 557.60297394 C538.15139051 594.9082056 538.15139051 594.9082056 540.56640625 632.1171875 C540.62854309 632.76460907 540.69067993 633.41203064 540.75469971 634.07907104 C543.56541308 662.90956933 548.84291994 696.72590522 572.35546875 716.33984375 C579.93069535 721.85999063 587.65151488 725.39124544 596.31640625 728.8046875 C596.31640625 736.0646875 596.31640625 743.3246875 596.31640625 750.8046875 C507.54640625 750.8046875 418.77640625 750.8046875 327.31640625 750.8046875 C327.31640625 743.5446875 327.31640625 736.2846875 327.31640625 728.8046875 C329.70890625 727.8353125 332.10140625 726.8659375 334.56640625 725.8671875 C342.85509981 722.35092648 351.50915769 717.88977121 357.015625 710.53515625 C357.65951172 709.67857422 357.65951172 709.67857422 358.31640625 708.8046875 C358.97640625 708.8046875 359.63640625 708.8046875 360.31640625 708.8046875 C360.56777344 708.27746094 360.81914063 707.75023438 361.078125 707.20703125 C362.32293633 704.79201874 363.69071692 702.4707794 365.08276367 700.13842773 C388.2033123 660.99266803 385.64030895 609.85426489 385.57785559 565.81115842 C385.5732488 560.98367364 385.58035453 556.15620206 385.58581543 551.32872009 C385.59462348 541.91976698 385.59282674 532.5108461 385.58699015 523.10189182 C385.58244154 515.44741131 385.58187443 507.79293973 385.58403778 500.13845825 C385.58434425 499.04192993 385.58465071 497.94540161 385.58496647 496.81564516 C385.58560602 494.58698153 385.58625445 492.35831791 385.58691165 490.12965429 C385.59258919 469.32435623 385.58609663 448.51907591 385.57531092 427.71378076 C385.5663677 409.91188015 385.56793882 392.11000562 385.57714844 374.30810547 C385.58787947 353.55609649 385.59205062 332.80410296 385.58592391 312.0520916 C385.58528691 309.83485794 385.58465816 307.61762429 385.58403778 305.40039062 C385.58372923 304.30989163 385.58342068 303.21939263 385.58310278 302.0958482 C385.58138507 294.45793795 385.58427064 286.82003762 385.58899689 279.18212891 C385.59463691 269.86426125 385.59302378 260.54642723 385.5824354 251.22856337 C385.57722192 246.48635577 385.57504716 241.74420403 385.5817337 237.00199699 C387.04342617 178.8700013 387.04342617 178.8700013 362.65625 128.109375 C360.19186082 125.68783611 360.19186082 125.68783611 357.31640625 123.8046875 C353.43582293 124.26377437 350.65492867 126.38857245 347.44140625 128.4921875 C309.11537447 152.76625154 261.84192482 142.1111977 220.31640625 132.8046875 C201.75361703 128.52188306 183.44856039 123.1984484 165.12890625 117.9921875 C163.55653198 117.54678116 163.55653198 117.54678116 161.95239258 117.09237671 C151.04153583 113.99595299 140.17940929 110.81877508 129.4140625 107.24609375 C127.74448039 106.70063497 126.07480544 106.15546024 124.4050293 105.6105957 C121.33447077 104.60718797 118.28579048 103.55729893 115.24145508 102.47729492 C108.65449657 99.95810682 108.65449657 99.95810682 101.96240234 100.76171875 C100.12171387 102.31320478 98.75638448 103.88288099 97.31640625 105.8046875 C96.57132813 106.43375 95.82625 107.0628125 95.05859375 107.7109375 C91.92102086 110.38903319 89.02291082 113.01530679 86.44140625 116.2421875 C85.74015625 117.0878125 85.03890625 117.9334375 84.31640625 118.8046875 C83.65640625 118.8046875 82.99640625 118.8046875 82.31640625 118.8046875 C82.05730469 119.38476562 81.79820312 119.96484375 81.53125 120.5625 C80.22178449 122.97932702 78.75556728 124.67427426 76.87890625 126.6796875 C66.46802886 138.21606515 57.68451924 150.73837548 49.31640625 163.8046875 C48.70152344 164.75746582 48.70152344 164.75746582 48.07421875 165.72949219 C23.09591493 204.72665948 12.79559114 247.51845958 12.93889129 293.28439772 C12.94785394 297.21599062 12.93925486 301.14755451 12.93302917 305.07914734 C12.92360336 312.75908918 12.930089 320.43893616 12.94229212 328.11887089 C12.95603019 337.10647227 12.9542635 346.09405198 12.95215879 355.08166119 C12.94897702 371.15708045 12.96058271 387.23245526 12.98022461 403.30786133 C12.99916462 418.813409 13.00632691 434.31890448 13.00073242 449.82446289 C12.9946309 466.78492804 12.99493541 483.74537032 13.00621825 500.70583361 C13.00742524 502.52640482 13.00863122 504.34697602 13.0098362 506.16754723 C13.01043974 507.06278787 13.01104327 507.95802851 13.0116651 508.88039765 C13.0154978 515.10302044 13.01513016 521.32563446 13.01325035 527.54825783 C7.19350864 625.90803572 7.19350864 625.90803572 42.93359375 712.6796875 C51.27045532 720.11452798 60.93636835 724.88052683 71.31640625 728.8046875 C71.31640625 736.0646875 71.31640625 743.3246875 71.31640625 750.8046875 C-17.45359375 750.8046875 -106.22359375 750.8046875 -197.68359375 750.8046875 C-197.68359375 743.5446875 -197.68359375 736.2846875 -197.68359375 728.8046875 C-194.12578125 727.3815625 -194.12578125 727.3815625 -190.49609375 725.9296875 C-171.82069855 717.98551908 -160.4622555 704.27738229 -152.68359375 685.8046875 C-139.18885913 651.42178089 -139.47550039 611.9365451 -139.62109375 575.5546875 C-139.62612605 573.33333436 -139.63068585 571.1119801 -139.63476562 568.890625 C-139.64561751 563.52862071 -139.66221451 558.16665963 -139.68359375 552.8046875 C-140.04270844 553.30413879 -140.40182312 553.80359009 -140.77182007 554.31817627 C-142.43661002 556.63219192 -144.1030632 558.9450051 -145.76953125 561.2578125 C-146.33406006 562.0430127 -146.89858887 562.82821289 -147.48022461 563.63720703 C-152.88846967 571.13859326 -158.47169159 578.49760705 -164.13574219 585.80712891 C-165.151349 587.11780634 -166.16508629 588.429935 -167.17675781 589.74365234 C-172.39460316 596.51772796 -177.70561266 603.08147849 -183.50390625 609.375 C-185.82981756 611.9676825 -188.00697183 614.64829299 -190.18359375 617.3671875 C-193.80820649 621.85814002 -197.67328956 625.93589477 -201.8359375 629.9296875 C-203.86201533 631.86766904 -203.86201533 631.86766904 -205.68359375 634.8046875 C-206.34359375 634.8046875 -207.00359375 634.8046875 -207.68359375 634.8046875 C-207.95220215 635.39854248 -208.22081055 635.99239746 -208.49755859 636.60424805 C-209.68891607 638.81456195 -210.88571273 640.25115933 -212.66015625 642.01171875 C-213.53643677 642.88618652 -213.53643677 642.88618652 -214.43041992 643.77832031 C-215.05021729 644.38514648 -215.67001465 644.99197266 -216.30859375 645.6171875 C-216.94450439 646.24592773 -217.58041504 646.87466797 -218.2355957 647.52246094 C-221.95558862 651.17835698 -225.72547237 654.73775706 -229.70703125 658.109375 C-232.19219569 660.2409192 -234.58799521 662.46152349 -236.99609375 664.6796875 C-242.39524927 669.60090948 -247.97414826 674.24918726 -253.68359375 678.8046875 C-254.70259766 679.62646484 -254.70259766 679.62646484 -255.7421875 680.46484375 C-310.0866574 723.5802419 -373.74995433 753.1212741 -442.68359375 762.8046875 C-443.8756543 762.97242676 -443.8756543 762.97242676 -445.09179688 763.14355469 C-497.8547241 770.35919228 -553.22313715 764.39624491 -603.68359375 747.8046875 C-604.38000977 747.57845703 -605.07642578 747.35222656 -605.79394531 747.11914062 C-646.10888914 733.89169829 -683.90918925 713.77942633 -716.68359375 686.8046875 C-717.25867676 686.33256836 -717.83375977 685.86044922 -718.42626953 685.37402344 C-724.19500901 680.61765215 -729.87268707 675.83247492 -735.0546875 670.4296875 C-737.58177718 667.90865799 -740.33171304 665.65527619 -743.08203125 663.3828125 C-744.68359375 661.8046875 -744.68359375 661.8046875 -745.68359375 658.8046875 C-746.53050781 658.41410156 -746.53050781 658.41410156 -747.39453125 658.015625 C-750.79149539 656.21859619 -752.89725679 653.34589449 -755.30859375 650.4296875 C-755.83783447 649.79828857 -756.3670752 649.16688965 -756.91235352 648.51635742 C-757.99530421 647.22341538 -759.07580011 645.9284132 -760.15380859 644.63134766 C-761.49440724 643.03058815 -762.86226313 641.45273748 -764.234375 639.87890625 C-771.84917217 631.06767614 -778.27104327 621.50861742 -784.68359375 611.8046875 C-785.34077393 610.82338867 -785.34077393 610.82338867 -786.01123047 609.82226562 C-835.72490031 535.28134059 -850.97990564 435.58629002 -837.68359375 347.8046875 C-837.5119873 346.6305127 -837.34038086 345.45633789 -837.16357422 344.24658203 C-826.76522777 274.65478884 -800.08267122 206.84737944 -755.68359375 151.8046875 C-754.97203125 150.91265625 -754.26046875 150.020625 -753.52734375 149.1015625 C-751.27504696 146.31067299 -748.98569516 143.55462535 -746.68359375 140.8046875 C-746.03825684 140.02182373 -746.03825684 140.02182373 -745.37988281 139.22314453 C-738.20148926 130.53927525 -730.50192978 122.41374046 -722.55859375 114.4296875 C-721.65278564 113.51469482 -720.74697754 112.59970215 -719.8137207 111.65698242 C-714.52879249 106.39594413 -709.07408876 101.53443442 -703.25170898 96.8762207 C-700.93874134 95.01049863 -698.698817 93.09315887 -696.4765625 91.12109375 C-683.54892065 79.7089481 -669.1618865 70.11216141 -654.68359375 60.8046875 C-654.03777344 60.38767578 -653.39195312 59.97066406 -652.7265625 59.54101562 C-635.17078204 48.31076582 -616.02995687 38.54156172 -596.68359375 30.8046875 C-595.75820801 30.42892578 -594.83282227 30.05316406 -593.87939453 29.66601562 C-507.44574073 -5.26162635 -409.08911436 -8.50641548 -314.21679688 27.21777344 C-282.85398715 40.57461859 -253.77955177 58.82746112 -229.13916016 82.43457031 C-227.27381208 84.19041289 -225.33210488 85.844474 -223.37109375 87.4921875 C-218.70351476 91.53676336 -214.73125535 96.15319442 -210.68359375 100.8046875 C-209.89726563 101.65675781 -209.1109375 102.50882813 -208.30078125 103.38671875 C-168.28970963 148.10857403 -146.68359375 209.20755314 -146.68359375 268.8046875 C-331.15359375 268.8046875 -515.62359375 268.8046875 -705.68359375 268.8046875 C-706.01359375 275.0746875 -706.34359375 281.3446875 -706.68359375 287.8046875 C-706.86921875 290.1765625 -707.05484375 292.5484375 -707.24609375 294.9921875 C-712.94663526 381.51169649 -690.05553272 474.04713255 -634.68359375 541.8046875 C-634.1839209 542.42150391 -633.68424805 543.03832031 -633.16943359 543.67382812 C-621.81461772 557.61469851 -609.09885137 571.01698483 -594.68359375 581.8046875 C-594.06500488 582.27261719 -593.44641602 582.74054687 -592.80908203 583.22265625 C-576.14276694 595.77475887 -558.63975893 607.03080901 -539.68359375 615.8046875 C-538.87857422 616.18568604 -538.07355469 616.56668457 -537.24414062 616.95922852 C-518.2633932 625.80784925 -498.08323233 632.18047036 -477.68359375 636.8046875 C-476.43231689 637.09400146 -476.43231689 637.09400146 -475.15576172 637.38916016 C-451.05925412 642.83950412 -426.67320741 644.0802672 -402.05859375 644.1171875 C-400.62231125 644.12256531 -400.62231125 644.12256531 -399.15701294 644.12805176 C-381.62805267 644.16341023 -364.22441223 643.05227375 -346.93359375 640.0546875 C-345.94593018 639.88477295 -344.9582666 639.7148584 -343.94067383 639.53979492 C-312.23160761 633.89290643 -282.64900149 623.68980407 -253.68359375 609.8046875 C-252.76578125 609.36511719 -251.84796875 608.92554688 -250.90234375 608.47265625 C-227.21297214 596.9569895 -204.67058502 581.07275591 -185.04516602 563.53466797 C-182.39738015 561.18007815 -179.97554764 559.16906357 -176.68359375 557.8046875 C-176.68359375 557.1446875 -176.68359375 556.4846875 -176.68359375 555.8046875 C-175.24560547 554.38574219 -175.24560547 554.38574219 -173.23828125 552.7265625 C-168.52964897 548.72142354 -164.16633228 544.4353615 -159.80859375 540.0546875 C-159.050625 539.30058594 -158.29265625 538.54648438 -157.51171875 537.76953125 C-156.78726563 537.04378906 -156.0628125 536.31804688 -155.31640625 535.5703125 C-154.66559082 534.91836914 -154.01477539 534.26642578 -153.34423828 533.59472656 C-151.50063316 531.70275031 -151.50063316 531.70275031 -149.68359375 528.8046875 C-146.47315493 530.18657203 -144.6342301 531.72890653 -142.43359375 534.4296875 C-141.9128125 535.06132813 -141.39203125 535.69296875 -140.85546875 536.34375 C-140.46875 536.82585938 -140.08203125 537.30796875 -139.68359375 537.8046875 C-139.63771736 495.91837798 -139.60252447 454.03207138 -139.58146309 412.14574167 C-139.57896197 407.18960899 -139.5763733 402.23347636 -139.57373047 397.27734375 C-139.57320585 396.2907551 -139.57268123 395.30416644 -139.57214071 394.28768116 C-139.56346145 378.35743276 -139.54770527 362.42719893 -139.52928816 346.49695915 C-139.51051987 330.12522451 -139.49946245 313.75349745 -139.49541676 297.38175249 C-139.49268601 287.2968158 -139.48409242 277.21192033 -139.46776082 267.12699634 C-139.4571082 260.19144304 -139.45401164 253.25591074 -139.456591 246.32034987 C-139.45785955 242.33162361 -139.45605299 238.34296889 -139.4451828 234.35425568 C-138.86590311 181.16127129 -138.86590311 181.16127129 -158.68359375 132.8046875 C-159.41320313 132.07765625 -160.1428125 131.350625 -160.89453125 130.6015625 C-162.68359375 128.8046875 -162.68359375 128.8046875 -162.68359375 126.8046875 C-163.56337891 126.4025 -163.56337891 126.4025 -164.4609375 125.9921875 C-166.70438012 124.79358195 -168.32998567 123.46878137 -170.24609375 121.8046875 C-178.07539573 115.5675629 -188.16349545 109.9780536 -197.68359375 106.8046875 C-197.68359375 99.5446875 -197.68359375 92.2846875 -197.68359375 84.8046875 C-185.61011432 79.11629484 -173.44680779 73.65150796 -161.24609375 68.2421875 C-159.2312758 67.34775284 -157.21646469 66.45330277 -155.20166016 65.55883789 C-142.75154372 60.03501252 -130.28570508 54.5484611 -117.80102539 49.10327148 C-106.57895882 44.20709863 -95.38037411 39.25837312 -84.18359375 34.3046875 C-63.53023555 25.16741549 -63.53023555 25.16741549 -53.77734375 20.90234375 C-53.08938217 20.60132751 -52.40142059 20.30031128 -51.69261169 19.99017334 C-48.40721821 18.55373564 -45.11979542 17.12226951 -41.82836914 15.69970703 C-36.13814029 13.23462131 -30.47736605 10.73329818 -24.88314819 8.05607605 C-22.99690043 7.15391915 -21.10574224 6.26296017 -19.21289062 5.37475586 C-16.88595087 4.27660859 -14.56985313 3.1550621 -12.26757812 2.00610352 C-4.71149315 -1.52886204 -4.71149315 -1.52886204 0 0 Z M-544.68359375 33.8046875 C-545.51197754 33.98128906 -546.34036133 34.15789062 -547.19384766 34.33984375 C-592.41894518 44.4753709 -631.93062223 76.3444253 -656.68359375 114.8046875 C-664.04128778 126.45186709 -670.92710547 138.28174751 -676.68359375 150.8046875 C-676.9971582 151.48160645 -677.31072266 152.15852539 -677.63378906 152.85595703 C-690.21275488 180.37802053 -703.68359375 216.21780815 -703.68359375 246.8046875 C-569.37359375 246.8046875 -435.06359375 246.8046875 -296.68359375 246.8046875 C-300.56312746 225.86501296 -300.56312746 225.86501296 -305.80859375 205.3671875 C-306.08689529 204.42042145 -306.08689529 204.42042145 -306.37081909 203.45452881 C-310.49093985 189.5053505 -315.83144541 176.11594513 -321.68359375 162.8046875 C-322.03776367 161.98339355 -322.39193359 161.16209961 -322.75683594 160.31591797 C-345.16308138 108.60319529 -387.25896955 62.56902978 -439.68359375 40.8046875 C-473.28433193 27.80689645 -509.56559285 26.31086219 -544.68359375 33.8046875 Z " fill="#ffffff" transform="translate(1648.68359375,1363.1953125)"/>
<path d="M0 0 C1.09643326 -0.00710495 2.19286652 -0.0142099 3.32252502 -0.02153015 C67.1033011 -0.34042418 135.05480658 6.40150514 187.23828125 47.203125 C188.18703125 47.94175781 189.13578125 48.68039062 190.11328125 49.44140625 C212.06902827 66.99976644 229.62862945 87.57268546 243.23828125 112.203125 C243.56602539 112.7914209 243.89376953 113.3797168 244.23144531 113.98583984 C271.51938373 163.69758068 276.37117872 220.96505864 276.40957177 276.55880606 C276.41351064 280.67046722 276.42314606 284.78211563 276.43212891 288.89376831 C276.44699295 296.00884168 276.45857208 303.12391407 276.46807671 310.23899651 C276.48205504 320.57164075 276.50326057 330.90426136 276.52650524 341.23688848 C276.5643486 358.06587902 276.59931703 374.89487388 276.63110352 391.72387695 C276.63300401 392.72902726 276.6349045 393.73417756 276.63686258 394.76978696 C276.66359723 408.97990614 276.68750109 423.19002867 276.71024758 437.40015472 C276.71264354 438.89651051 276.71264354 438.89651051 276.71508789 440.4230957 C276.71668136 441.41942195 276.71827482 442.4157482 276.71991657 443.44226616 C276.74688531 460.18302821 276.78136842 476.92376526 276.82174164 493.6645003 C276.84406157 503.02962337 276.86276772 512.39472486 276.87219048 521.75987053 C273.10042211 610.00419759 273.10042211 610.00419759 293.23828125 694.203125 C293.62628906 695.04746094 294.01429687 695.89179687 294.4140625 696.76171875 C303.02370505 713.83307186 318.14079676 721.79156832 335.23828125 728.203125 C335.23828125 734.803125 335.23828125 741.403125 335.23828125 748.203125 C317.30492951 748.27270607 299.37162442 748.32617739 281.43816662 748.35856152 C273.11050495 748.37400071 264.78292894 748.39503356 256.45532227 748.42944336 C249.19315938 748.45943631 241.93105857 748.4787214 234.66883546 748.48539048 C230.82699382 748.48928606 226.98532966 748.49837899 223.14354515 748.52031517 C219.51972015 748.54083712 215.89614398 748.54692748 212.27226639 748.54244804 C210.32415322 748.54365333 208.37606649 748.55971261 206.42802429 748.5763855 C194.34125124 748.53431051 181.99176684 746.09792006 172.6796875 737.80078125 C161.59864338 725.51853993 161.09595504 709.82521612 161.08006287 694.16157532 C161.07512489 693.10678724 161.07018691 692.05199916 161.0650993 690.96524781 C161.04984784 687.46161523 161.04139748 683.95800079 161.03295898 680.4543457 C161.02337073 677.93058617 161.0133601 675.40682822 161.00296021 672.8830719 C160.98157997 667.46536606 160.96311622 662.047663 160.94735527 656.62993813 C160.92456297 648.79699092 160.8964336 640.96406989 160.86703599 633.13114502 C160.81947419 620.42020529 160.77617941 607.7092548 160.7355957 594.99829102 C160.69618248 582.65681116 160.65474247 570.31534083 160.6105957 557.97387695 C160.60787143 557.21209604 160.60514716 556.45031513 160.60234033 555.66544995 C160.5886599 551.84350457 160.57493981 548.02155934 160.56120002 544.19961417 C160.44741471 512.53413745 160.3406376 480.86864078 160.23828125 449.203125 C160.03809513 449.8919234 159.83790901 450.5807218 159.63165665 451.29039288 C158.71507395 454.44273409 157.79748642 457.59478198 156.87988281 460.74682617 C156.56499908 461.83034111 156.25011536 462.91385605 155.9256897 464.03020477 C138.17297794 524.98325831 110.63181888 585.09222787 71.23828125 635.203125 C70.38344918 636.31198735 69.52932255 637.42139378 68.67578125 638.53125 C60.35284105 649.30000578 51.79777702 659.96212909 42.00390625 669.4375 C40.27985874 671.16154751 38.73445301 672.95457005 37.17578125 674.828125 C28.38345916 685.02882821 17.77497912 693.88076843 7.23828125 702.203125 C6.23152344 703.028125 5.22476563 703.853125 4.1875 704.703125 C-48.23640319 747.36387213 -112.84909164 768.49070889 -180.24609375 762.42944336 C-217.42393275 758.50493409 -255.57573918 746.91879293 -285.76171875 724.203125 C-286.3654834 723.75050293 -286.96924805 723.29788086 -287.59130859 722.83154297 C-303.34552041 710.92022325 -303.34552041 710.92022325 -308.76171875 705.203125 C-308.76171875 704.543125 -308.76171875 703.883125 -308.76171875 703.203125 C-309.42171875 703.203125 -310.08171875 703.203125 -310.76171875 703.203125 C-312.26635742 701.72998047 -312.26635742 701.72998047 -313.9921875 699.6953125 C-314.61528809 698.96151367 -315.23838867 698.22771484 -315.88037109 697.47167969 C-325.60520204 685.74534577 -333.93793662 673.84771465 -340.76171875 660.203125 C-341.12104492 659.4910791 -341.48037109 658.7790332 -341.85058594 658.04541016 C-354.38849877 632.77891577 -360.18705098 604.30900252 -360.76171875 576.203125 C-360.78218262 575.46465332 -360.80264648 574.72618164 -360.82373047 573.96533203 C-361.51550639 546.79168779 -357.33669639 520.32838601 -346.76171875 495.203125 C-346.46426758 494.48995117 -346.16681641 493.77677734 -345.86035156 493.04199219 C-338.49976696 475.70284207 -328.39814772 460.13559797 -315.76171875 446.203125 C-314.97925781 445.31238281 -314.19679688 444.42164063 -313.390625 443.50390625 C-305.17169556 434.20241418 -296.52555864 425.86873504 -286.76171875 418.203125 C-285.85703857 417.48382812 -285.85703857 417.48382812 -284.93408203 416.75 C-267.02437689 402.54064716 -248.01456875 390.76790867 -227.76171875 380.203125 C-226.79621094 379.69313965 -225.83070313 379.1831543 -224.8359375 378.65771484 C-174.2855503 352.06575985 -118.98020775 334.47870606 -64.30078125 318.55859375 C-62.7564998 318.10831094 -62.7564998 318.10831094 -61.18102074 317.6489315 C-39.71047972 311.3981756 -18.14413604 305.53860479 3.46839523 299.80141449 C8.57707776 298.44401677 13.68408526 297.08034364 18.79125977 295.71728516 C25.23716148 293.99736217 31.68325138 292.2781554 38.13011169 290.56182861 C53.19836264 286.55011727 68.26187307 282.52097771 83.32272911 278.48159599 C90.36031874 276.5942777 97.39831529 274.70847735 104.43627644 272.82254505 C110.11192255 271.30158695 115.78739643 269.77999261 121.4624939 268.25698853 C126.77462623 266.83153667 132.08740569 265.40852234 137.40068817 263.98736382 C139.35884871 263.46315706 141.31677399 262.93807064 143.27445221 262.41206551 C145.94204524 261.69543295 148.6104338 260.98184405 151.27905273 260.26904297 C152.06412295 260.05735883 152.84919317 259.84567469 153.6580534 259.62757587 C159.01004705 258.203125 159.01004705 258.203125 161.23828125 258.203125 C159.26300911 236.98779756 157.25255928 215.95998814 152.23828125 195.203125 C152.01414551 194.26130371 151.79000977 193.31948242 151.55908203 192.34912109 C139.67748094 143.35533479 113.33321051 102.72555602 70.23974609 75.96191406 C36.58175364 55.86571724 -4.77688181 49.9524167 -43.32421875 50.015625 C-44.06905518 50.01656158 -44.8138916 50.01749817 -45.58129883 50.01846313 C-102.54458131 50.17297337 -157.68945418 68.23675314 -204.76171875 100.203125 C-205.60331543 100.77450195 -205.60331543 100.77450195 -206.46191406 101.35742188 C-216.31909343 108.10860683 -225.61543774 115.52382466 -234.76171875 123.203125 C-235.25148193 123.61063995 -235.74124512 124.01815491 -236.24584961 124.4380188 C-245.042232 131.77103851 -253.36864273 139.46475676 -261.45117188 147.5769043 C-263.2799961 149.40893439 -265.12193702 151.2270705 -266.96484375 153.04492188 C-277.53341753 163.54413252 -283.47808124 173.11972829 -288.53567505 187.16793823 C-290.1503229 191.64876807 -291.80712035 196.11409338 -293.45703125 200.58203125 C-293.80526443 201.52820816 -294.15349762 202.47438507 -294.51228333 203.44923401 C-298.48856901 214.22925156 -302.65335568 224.93474023 -306.82421875 235.640625 C-308.03249208 238.7467134 -309.24029647 241.85298389 -310.4480896 244.95925903 C-311.27574007 247.0878039 -312.10356152 249.21628228 -312.93154907 251.34469604 C-317.83563289 263.95521423 -322.70493588 276.57913793 -327.57421875 289.203125 C-328.50055876 291.60433363 -329.42690971 294.00553804 -330.35327148 296.40673828 C-331.75250918 300.03376503 -333.15170269 303.66080881 -334.55076599 307.28790283 C-337.81335184 315.74599378 -341.07800334 324.20328526 -344.34375 332.66015625 C-353.16411656 355.50229874 -361.97605727 378.34760922 -370.76171875 401.203125 C-380.47706557 426.4771767 -390.22563354 451.73834859 -399.97949219 476.99755859 C-404.11718499 487.71309876 -408.2528869 498.42940733 -412.38873291 509.1456604 C-414.67964606 515.08151363 -416.97068899 521.01731677 -419.26171875 526.953125 C-420.17838604 529.32812476 -421.0950527 531.70312476 -422.01171875 534.078125 C-449.51171877 605.32812506 -449.51171877 605.32812506 -450.88659668 608.89030457 C-451.80367397 611.26637124 -452.72074754 613.64243936 -453.63781738 616.01850891 C-455.92317092 621.93970054 -458.20858833 627.86086751 -460.49414062 633.78198242 C-464.93663436 645.29122801 -469.37826384 656.80080586 -473.8177681 668.31120491 C-484.09497997 694.9565581 -494.39406381 721.59281065 -504.76171875 748.203125 C-525.55171875 748.203125 -546.34171875 748.203125 -567.76171875 748.203125 C-574.50930717 734.70794815 -574.50930717 734.70794815 -576.92578125 728.84375 C-577.19541183 728.19323166 -577.46504242 727.54271332 -577.74284363 726.8724823 C-578.62811093 724.73431531 -579.5073286 722.593715 -580.38671875 720.453125 C-581.03165214 718.89310663 -581.67709481 717.33329872 -582.32299805 715.77368164 C-583.723037 712.39229435 -585.12111116 709.01010375 -586.51806641 705.62744141 C-590.09466609 696.9733739 -593.70056249 688.33148443 -597.30371094 679.68844604 C-598.58308018 676.61936731 -599.86190414 673.55006182 -601.140625 670.48071289 C-608.91985959 651.81049449 -616.72855836 633.15266607 -624.54394531 614.49755859 C-627.90923883 606.46430722 -631.27185083 598.42993331 -634.63470459 590.3956604 C-636.51026989 585.91477086 -638.38600266 581.43395142 -640.26171875 576.953125 C-641.01171956 575.16145867 -641.76171956 573.369792 -642.51171875 571.578125 C-642.88296875 570.69125 -643.25421875 569.804375 -643.63671875 568.890625 C-665.01171872 517.82812506 -665.01171872 517.82812506 -666.13674927 515.14054871 C-666.88664432 513.349135 -667.6365426 511.55772265 -668.38644409 509.76631165 C-670.26307619 505.28328567 -672.13965209 500.80023619 -674.01611328 496.31713867 C-677.37157674 488.30067324 -680.72740251 480.28436072 -684.08538818 472.26895142 C-692.75515222 451.57438112 -701.40428601 430.87137604 -710.02966309 410.15826416 C-718.17686698 390.59452868 -726.35516708 371.04392231 -734.54394531 351.49755859 C-737.90923883 343.46430722 -741.27185083 335.42993331 -744.63470459 327.3956604 C-746.51026989 322.91477086 -748.38600266 318.43395142 -750.26171875 313.953125 C-751.01171956 312.16145867 -751.76171956 310.369792 -752.51171875 308.578125 C-752.88296875 307.69125 -753.25421875 306.804375 -753.63671875 305.890625 C-760.76171875 288.86979167 -767.88671875 271.84895833 -775.01171875 254.828125 C-775.38295868 253.94128525 -775.75419861 253.0544455 -776.13668823 252.14073181 C-776.88682216 250.34872259 -777.63692388 248.55669988 -778.38699341 246.7646637 C-780.25968057 242.29062712 -782.13292352 237.81682484 -784.00732422 233.34350586 C-787.79467585 224.30314764 -791.57202843 215.25880073 -795.33203125 206.20703125 C-832.45831237 105.80821777 -832.45831237 105.80821777 -904.390625 31.5859375 C-906.76171875 30.203125 -906.76171875 30.203125 -907.76171875 29.203125 C-907.86009085 27.87268875 -907.89250467 26.53719156 -907.89453125 25.203125 C-907.89582031 24.39875 -907.89710937 23.594375 -907.8984375 22.765625 C-907.89457031 21.92 -907.89070313 21.074375 -907.88671875 20.203125 C-907.89058594 19.3575 -907.89445312 18.511875 -907.8984375 17.640625 C-907.89714844 16.83625 -907.89585938 16.031875 -907.89453125 15.203125 C-907.89340332 14.460625 -907.89227539 13.718125 -907.89111328 12.953125 C-907.76171875 11.203125 -907.76171875 11.203125 -906.76171875 10.203125 C-904.01794982 10.10525281 -901.29935897 10.07319158 -898.55516052 10.08287048 C-897.68450944 10.08201606 -896.81385837 10.08116163 -895.91682392 10.08028132 C-892.97634853 10.07862384 -890.03592919 10.08415224 -887.09545898 10.08959961 C-884.99681601 10.08988145 -882.89817294 10.08972381 -880.79953003 10.0891571 C-875.08282085 10.088869 -869.36613246 10.09476772 -863.64942813 10.10173106 C-857.68230719 10.10796256 -851.71518583 10.10856824 -845.74806213 10.10975647 C-834.43977246 10.11287039 -823.13149239 10.1210846 -811.82320696 10.13110596 C-798.95281324 10.14226521 -786.08241906 10.14777707 -773.21202171 10.15280139 C-746.72858187 10.16326716 -720.24515125 10.1810681 -693.76171875 10.203125 C-693.76171875 16.803125 -693.76171875 23.403125 -693.76171875 30.203125 C-700.51171875 33.015625 -700.51171875 33.015625 -702.61621094 33.88208008 C-706.03582174 35.32796572 -708.84329761 36.93248425 -711.76171875 39.203125 C-712.42171875 39.203125 -713.08171875 39.203125 -713.76171875 39.203125 C-713.76171875 39.863125 -713.76171875 40.523125 -713.76171875 41.203125 C-714.42171875 41.203125 -715.08171875 41.203125 -715.76171875 41.203125 C-724.64961717 58.66977754 -720.52945292 76.10485841 -714.88330078 93.98486328 C-705.48515149 122.43584857 -693.22603041 150.12047221 -681.32470703 177.59130859 C-678.43529102 184.26828774 -675.56666043 190.95418526 -672.69921875 197.640625 C-672.38964233 198.36229858 -672.08006592 199.08397217 -671.7611084 199.82751465 C-663.82957169 218.32423754 -656.01794472 236.87155968 -648.20117188 255.41699219 C-644.61953082 263.91365115 -641.03190869 272.40778451 -637.44464111 280.90206909 C-635.46943883 285.57917403 -633.49444739 290.25636798 -631.51953125 294.93359375 C-630.93230789 296.3243084 -630.93230789 296.3243084 -630.33322144 297.74311829 C-627.93718224 303.41800467 -625.54216021 309.09331923 -623.14788818 314.76895142 C-615.20820654 333.58989707 -607.25886481 352.40651402 -599.26171875 371.203125 C-590.85945802 390.95192352 -582.51079055 410.72317838 -574.16894531 430.49755859 C-571.78164523 436.15636636 -569.39299794 441.81460468 -567.00390625 447.47265625 C-566.61243408 448.39977417 -566.22096191 449.32689209 -565.81762695 450.28210449 C-564.63234728 453.08912106 -563.44703879 455.89612547 -562.26171875 458.703125 C-557.88918893 469.05787202 -553.51671041 479.41263943 -549.14788818 489.76895142 C-540.86520536 509.40297834 -532.56842266 529.03073582 -524.22521973 548.63912964 C-516.44215991 566.93271091 -508.71257373 585.24877167 -500.98484802 603.56578064 C-496.25250967 614.78191181 -491.50828545 625.99300856 -486.76171875 637.203125 C-481.30564468 623.71788376 -476.04180164 610.16866844 -470.89801025 596.56143188 C-468.81125169 591.04194965 -466.71799074 585.52493388 -464.625 580.0078125 C-464.20692078 578.90546768 -463.78884155 577.80312286 -463.35809326 576.66737366 C-459.72957072 567.10571317 -456.06623169 557.5577588 -452.38671875 548.015625 C-446.41609628 532.52820953 -440.48941616 517.02428989 -434.57421875 501.515625 C-427.62482625 483.29574743 -420.6466537 465.08729223 -413.63671875 446.890625 C-406.62332703 428.68445652 -399.66515646 410.45804538 -392.74499512 392.21624756 C-387.36294922 378.03004089 -381.95091315 363.85608039 -376.49359131 349.69866943 C-370.36923862 333.80923132 -364.29747909 317.89990344 -358.22918701 301.98898315 C-352.10228442 285.92648416 -345.94756326 269.8750166 -339.76571655 253.83358765 C-336.48594546 245.31908127 -333.21467506 236.80130741 -329.94458008 228.28308105 C-328.77465771 225.23681571 -327.60320042 222.19114373 -326.43164062 219.14550781 C-307.38221879 170.52706567 -307.38221879 170.52706567 -293.76171875 120.203125 C-293.58817871 119.36007812 -293.41463867 118.51703125 -293.23583984 117.6484375 C-288.97951177 96.02578571 -287.67184182 72.4554112 -298.45703125 52.62890625 C-299.76171875 50.203125 -299.76171875 50.203125 -300.76171875 47.203125 C-301.75171875 46.873125 -302.74171875 46.543125 -303.76171875 46.203125 C-304.44234375 45.48125 -305.12296875 44.759375 -305.82421875 44.015625 C-313.46930193 36.19012688 -323.61383705 33.33974298 -333.76171875 30.203125 C-333.76171875 23.603125 -333.76171875 17.003125 -333.76171875 10.203125 C-283.27171875 10.203125 -232.78171875 10.203125 -180.76171875 10.203125 C-180.76171875 16.803125 -180.76171875 23.403125 -180.76171875 30.203125 C-183.50484375 31.37875 -186.24796875 32.554375 -189.07421875 33.765625 C-200.90183161 38.97397871 -210.40988712 45.23693592 -219.76171875 54.203125 C-220.70144531 55.06550781 -220.70144531 55.06550781 -221.66015625 55.9453125 C-226.79719436 60.80341641 -230.80122812 66.36699217 -234.76171875 72.203125 C-235.12604004 72.73953613 -235.49036133 73.27594727 -235.86572266 73.82861328 C-244.66867379 86.95156627 -251.63496518 101.12879069 -258.76171875 115.203125 C-258.43171875 114.873125 -258.10171875 114.543125 -257.76171875 114.203125 C-257.10171875 114.203125 -256.44171875 114.203125 -255.76171875 114.203125 C-255.43171875 113.213125 -255.10171875 112.223125 -254.76171875 111.203125 C-253.265625 109.6953125 -253.265625 109.6953125 -251.32421875 108.078125 C-248.142925 105.38364844 -245.02705239 102.64045861 -241.94921875 99.828125 C-225.83981285 85.34666812 -208.27744808 72.40203106 -190.06884766 60.68896484 C-188.51475893 59.68809881 -186.96501429 58.68045897 -185.41943359 57.66650391 C-131.3286312 22.2489885 -64.87935513 0.2794748 0 0 Z M153.16259766 279.79418945 C152.21486245 280.0518649 152.21486245 280.0518649 151.24798107 280.3147459 C149.11128983 280.89629118 146.9755932 281.48141246 144.83984375 282.06640625 C143.3005798 282.48592713 141.76124584 282.90519117 140.22184753 283.32421875 C136.87397069 284.23597483 133.52650399 285.14921633 130.17935181 286.06362915 C121.99417853 288.29971365 113.80733601 290.52967063 105.6203022 292.75893211 C103.67711493 293.28804694 101.733953 293.81725485 99.79081535 294.3465519 C84.87474672 298.40894598 69.95080427 302.44143511 55.0214386 306.45467567 C51.6597233 307.35844124 48.29816075 308.26277275 44.93664551 309.1672821 C42.70630097 309.76737247 40.4759543 310.36745489 38.24560547 310.9675293 C37.14706867 311.26309314 36.04853188 311.55865698 34.91670609 311.8631773 C29.48692748 313.32370559 24.05671209 314.78257232 18.62554932 316.23794556 C-4.94424342 322.55484473 -28.4663803 328.92699481 -51.76171875 336.203125 C-52.60938812 336.46721161 -53.4570575 336.73129822 -54.33041382 337.00338745 C-103.53224358 352.40529107 -154.23158927 372.22942291 -193.24414062 406.85742188 C-194.75579676 408.19787372 -196.28170203 409.52070519 -197.80859375 410.84375 C-226.51034176 436.05330534 -245.75645015 472.39795729 -248.62109375 510.69628906 C-250.37388897 541.94229821 -247.11430294 573.02618001 -232.76171875 601.203125 C-232.26929687 602.21117187 -231.776875 603.21921875 -231.26953125 604.2578125 C-215.49550953 635.00378703 -186.9971364 656.55013552 -154.65234375 667.4453125 C-107.91054448 682.08980698 -55.9922732 676.64279505 -12.63183594 654.18554688 C-12.01469727 653.86134766 -11.39755859 653.53714844 -10.76171875 653.203125 C-10.1677832 652.89439453 -9.57384766 652.58566406 -8.96191406 652.26757812 C5.76294188 644.51592887 19.21732795 634.57956857 31.66870117 623.58374023 C32.79460634 622.59338501 33.92856184 621.61215343 35.06762695 620.63696289 C40.37727694 616.0688658 45.36180005 611.22974096 50.30078125 606.265625 C51.06455078 605.50572266 51.82832031 604.74582031 52.61523438 603.96289062 C110.17884437 546.30079712 143.99222494 461.3134324 156.91540527 382.17767334 C157.23065841 380.24974248 157.55515741 378.32333071 157.87988281 376.39697266 C163.09048619 344.00617748 161.62712687 310.90054489 161.23828125 278.203125 C158.38409809 278.203125 155.91778306 279.04175661 153.16259766 279.79418945 Z " fill="#ffffff" transform="translate(2391.76171875,299.796875)"/>
<path d="M0 0 C21.76609994 -0.21034886 43.53203202 -0.36900166 65.29894257 -0.46630955 C75.40602112 -0.51269479 85.51246773 -0.5759202 95.61914062 -0.67895508 C104.42934994 -0.76872995 113.23910156 -0.82674023 122.04975557 -0.84679645 C126.71416166 -0.85851875 131.37725856 -0.88601551 136.04124451 -0.95157051 C140.43454748 -1.01281861 144.82600667 -1.031474 149.21969604 -1.01796913 C150.82899511 -1.02043828 152.43835796 -1.03825229 154.04728699 -1.07284927 C166.17054614 -1.32067505 166.17054614 -1.32067505 170.66900635 1.92674446 C172.71271372 4.18829728 174.36218951 6.43463361 176 9 C177.06911387 10.38821231 178.14696621 11.76979702 179.23828125 13.140625 C180.26573856 14.50837933 181.29043623 15.87821063 182.3125 17.25 C186.30313784 22.54141497 190.36349929 27.72685841 194.6875 32.75 C198.65120562 37.35550929 202.41950973 42.07674668 206.09277344 46.91723633 C209.45368924 51.33024774 212.9273207 55.64254123 216.4375 59.9375 C220.50921405 64.92003904 224.54076875 69.92757469 228.5 75 C232.44185031 80.04853686 236.4502462 85.03762563 240.5 90 C245.00759973 95.52339685 249.44842642 101.09184436 253.8359375 106.7109375 C257.33776247 111.18436708 260.90811164 115.59867202 264.5 120 C269.00694318 125.52259235 273.44784455 131.08968772 277.83374023 136.70874023 C281.35375039 141.20663709 284.94851179 145.63990495 288.5625 150.0625 C292.4322354 154.79907418 296.2346818 159.5692046 299.9375 164.4375 C304.40011944 170.29106576 309.05812613 175.96415376 313.75537109 181.63037109 C317.87953208 186.61405871 321.91042501 191.65925643 325.88647461 196.76147461 C329.36845239 201.22067108 332.92240807 205.61725331 336.5 210 C341.00767214 215.52333657 345.44842767 221.09184597 349.8359375 226.7109375 C353.33776455 231.18436975 356.90822679 235.59857554 360.5 240 C366.88153998 247.82344133 373.12199109 255.75072065 379.33398438 263.70898438 C385.19893605 271.21783492 391.13955026 278.65662528 397.16357422 286.03857422 C401.11230493 290.88532838 404.9885508 295.7835826 408.8359375 300.7109375 C412.33776247 305.18436708 415.90811164 309.59867202 419.5 314 C424.00759973 319.52339685 428.44842642 325.09184436 432.8359375 330.7109375 C436.33776247 335.18436708 439.90811164 339.59867202 443.5 344 C448.00759973 349.52339685 452.44842642 355.09184436 456.8359375 360.7109375 C460.33776247 365.18436708 463.90811164 369.59867202 467.5 374 C472.00759973 379.52339685 476.44842642 385.09184436 480.8359375 390.7109375 C484.33776247 395.18436708 487.90811164 399.59867202 491.5 404 C496.00759973 409.52339685 500.44842642 415.09184436 504.8359375 420.7109375 C508.33776247 425.18436708 511.90811164 429.59867202 515.5 434 C520.00925657 439.52542706 524.45272738 445.09516159 528.84033203 450.7175293 C532.29374711 455.13105599 535.82496146 459.47649846 539.375 463.8125 C543.84173822 469.27287441 548.18068295 474.81214341 552.4375 480.4375 C557.43652432 487.039785 562.61633797 493.46384358 567.90771484 499.83349609 C571.98517772 504.74712856 575.96268672 509.72624865 579.88720703 514.76245117 C583.36898282 519.22128835 586.92266549 523.61756866 590.5 528 C595.00767214 533.52333657 599.44842767 539.09184597 603.8359375 544.7109375 C607.33776247 549.18436708 610.90811164 553.59867202 614.5 558 C619.00759973 563.52339685 623.44842642 569.09184436 627.8359375 574.7109375 C631.33776247 579.18436708 634.90811164 583.59867202 638.5 588 C643.00759973 593.52339685 647.44842642 599.09184436 651.8359375 604.7109375 C655.33776247 609.18436708 658.90811164 613.59867202 662.5 618 C667.00759973 623.52339685 671.44842642 629.09184436 675.8359375 634.7109375 C679.33776247 639.18436708 682.90811164 643.59867202 686.5 648 C691.00759973 653.52339685 695.44842642 659.09184436 699.8359375 664.7109375 C703.33776455 669.18436975 706.90822679 673.59857554 710.5 678 C716.88153998 685.82344133 723.12199109 693.75072065 729.33398438 701.70898438 C735.19893605 709.21783492 741.13955026 716.65662528 747.16357422 724.03857422 C751.11165074 728.88452542 754.98784811 733.78152094 758.83374023 738.70874023 C762.83733784 743.82456897 766.93123575 748.86444906 771.05859375 753.88085938 C774.52528595 758.11543288 777.88381624 762.42571297 781.21459961 766.76733398 C781.67606133 767.36807487 782.13752304 767.96881577 782.61296844 768.58776093 C783.74239167 770.05819038 784.871253 771.52905139 786 773 C786.01714713 724.98162923 786.03306391 676.96325824 786.04234314 628.94488525 C786.04255023 627.87600572 786.04255023 627.87600572 786.04276149 626.78553266 C786.04575557 611.29288058 786.04852558 595.80022845 786.05106533 580.30757628 C786.05231248 572.7081433 786.05360906 565.10871032 786.05493164 557.50927734 C786.0550624 556.75310974 786.05519316 555.99694213 786.05532788 555.21786036 C786.05957651 530.78207019 786.06707821 506.34628236 786.07629722 481.91049361 C786.0857668 456.76441741 786.09189397 431.6183425 786.09391499 406.47226454 C786.09420307 402.9069171 786.09452871 399.34156967 786.09487724 395.77622223 C786.09497838 394.72382768 786.09497838 394.72382768 786.09508156 393.65017263 C786.0962556 382.43233496 786.10087265 371.21450132 786.10683203 359.99666528 C786.11277218 348.67298441 786.11487495 337.34930865 786.11350138 326.02562585 C786.11286689 319.90890657 786.11377289 313.79219895 786.11920547 307.6754818 C786.19610852 257.11266778 786.19610852 257.11266778 783.6875 206.625 C783.62375183 205.76053253 783.56000366 204.89606506 783.49432373 204.00540161 C780.60415484 165.15756046 775.83070098 124.19633411 758 89 C757.66919434 88.34386719 757.33838867 87.68773438 756.99755859 87.01171875 C746.91451491 67.36222886 733.30099665 52.28575093 715 40 C714.21367188 39.45601562 713.42734375 38.91203125 712.6171875 38.3515625 C700.89405831 30.74623496 686.9326808 26.14050802 674 21 C674 14.07 674 7.14 674 0 C700.05948925 -0.02311581 726.11897605 -0.04097759 752.17847347 -0.05181217 C764.27743312 -0.05697582 776.3763863 -0.06401981 788.4753418 -0.07543945 C799.01666806 -0.08538421 809.55798964 -0.09185293 820.09932047 -0.09408849 C825.68458134 -0.09539596 831.26982879 -0.09848404 836.85508537 -0.10573006 C842.10559648 -0.11248699 847.35608858 -0.11461763 852.60660362 -0.11310768 C854.53964084 -0.11338416 856.47267865 -0.11539121 858.40571213 -0.11920547 C861.03282261 -0.12413762 863.65986009 -0.12300007 866.28697205 -0.12025452 C867.44988727 -0.12462378 867.44988727 -0.12462378 868.63629574 -0.12908131 C873.88587879 -0.11412121 873.88587879 -0.11412121 875 1 C875.08669432 2.4887186 875.10703494 3.981445 875.09765625 5.47265625 C875.09443359 6.37177734 875.09121094 7.27089844 875.08789062 8.19726562 C875.07951172 9.14279297 875.07113281 10.08832031 875.0625 11.0625 C875.05798828 12.01189453 875.05347656 12.96128906 875.04882812 13.93945312 C875.0370011 16.29303065 875.02052025 18.64648477 875 21 C873.94941406 21.50789063 872.89882813 22.01578125 871.81640625 22.5390625 C853.86468578 31.2988174 841.08390523 40.83218955 832 59 C831.29230469 60.41539063 831.29230469 60.41539063 830.5703125 61.859375 C812.22952543 102.18632296 815.84898711 152.92629147 815.8427946 196.15250711 C815.84103781 200.69016606 815.83353779 205.22781651 815.82681805 209.76547033 C815.81584799 217.69065814 815.80842372 225.61584287 815.80341911 233.54103661 C815.79596107 245.32522842 815.78286652 257.10940944 815.76867336 268.89359483 C815.74494685 288.72329734 815.72570765 308.55300178 815.70907402 328.38271141 C815.69260266 348.00127617 815.67410733 367.61983732 815.65294075 387.2383976 C815.65096434 389.07182995 815.65096434 389.07182995 815.648948 390.94230134 C815.64224542 397.15031915 815.63550698 403.35833692 815.62875474 409.56635467 C815.58106026 453.47595495 815.53785567 497.3855586 815.49731445 541.29516602 C815.45793214 583.93839779 815.41650181 626.58162648 815.37231445 669.22485352 C815.37095192 670.54055368 815.36958939 671.85625384 815.36818558 673.21182371 C815.35449957 686.42527615 815.34077209 699.63872854 815.32701423 712.85218091 C815.29899176 739.7667135 815.27124596 766.68124637 815.2436676 793.59577942 C815.2417653 795.45178925 815.2417653 795.45178925 815.23982458 797.34529424 C815.15524589 879.89685828 815.07711573 962.44842869 815 1045 C811.81348518 1045.20705017 808.62871472 1045.3311577 805.4375 1045.44140625 C804.09461914 1045.53017029 804.09461914 1045.53017029 802.72460938 1045.62072754 C798.83559122 1045.7213363 796.09611002 1045.77422628 792.84840393 1043.48024178 C789.81316888 1040.4434837 787.20020204 1037.14485979 784.9375 1033.4921875 C782.21645036 1029.26806468 779.19967847 1025.42986488 776 1021.5625 C771.6989265 1016.21564186 767.52423815 1010.77758731 763.375 1005.3125 C758.87816564 999.39009887 754.25522514 993.63108648 749.45703125 987.94921875 C745.32516046 982.98966001 741.37303312 977.89014031 737.40429688 972.79980469 C735.04670931 969.77822341 732.67987357 966.76391655 730.3125 963.75 C729.85109619 963.16234863 729.38969238 962.57469727 728.91430664 961.96923828 C726.29225217 958.63310237 723.65536532 955.30974251 721 952 C717.8723098 948.10153482 714.77398238 944.18109047 711.6875 940.25 C711.22069824 939.65558105 710.75389648 939.06116211 710.27294922 938.44873047 C707.94808766 935.48670233 705.62627539 932.5223369 703.30859375 929.5546875 C698.4783032 923.37780254 693.59093698 917.25599058 688.625 911.1875 C683.57426786 905.01138991 678.6992829 898.72039218 673.87988281 892.36279297 C669.61031796 886.75015307 665.20140839 881.26475596 660.734375 875.80859375 C657.27230025 871.57716906 653.8634525 867.31017032 650.5 863 C646.54091984 857.92745119 642.50898723 852.92022202 638.4375 847.9375 C634.5330876 843.15617906 630.68124526 838.34576383 626.9375 833.4375 C623.37116242 828.76317404 619.74393535 824.14666279 616.0625 819.5625 C612.16279739 814.70654847 608.28175443 809.83749818 604.4375 804.9375 C603.98624756 804.36249756 603.53499512 803.78749512 603.07006836 803.19506836 C600.81835634 800.3238633 598.57017465 797.44992789 596.32421875 794.57421875 C591.42461365 788.30926651 586.46865083 782.09746294 581.4375 775.9375 C576.71164336 770.15132846 572.12332089 764.28513519 567.59375 758.34375 C564.63788799 754.50112939 561.56887436 750.75252788 558.5 747 C554.57387237 742.19823246 550.69817104 737.37009043 546.9375 732.4375 C543.37116242 727.76317404 539.74393535 723.14666279 536.0625 718.5625 C532.16279739 713.70654847 528.28175443 708.83749818 524.4375 703.9375 C523.98624756 703.36249756 523.53499512 702.78749512 523.07006836 702.19506836 C520.81835634 699.3238633 518.57017465 696.44992789 516.32421875 693.57421875 C511.42461365 687.30926651 506.46865083 681.09746294 501.4375 674.9375 C496.71164336 669.15132846 492.12332089 663.28513519 487.59375 657.34375 C484.63788799 653.50112939 481.56887436 649.75252788 478.5 646 C474.57387237 641.19823246 470.69817104 636.37009043 466.9375 631.4375 C463.37116242 626.76317404 459.74393535 622.14666279 456.0625 617.5625 C452.16279739 612.70654847 448.28175443 607.83749818 444.4375 602.9375 C443.98624756 602.36249756 443.53499512 601.78749512 443.07006836 601.19506836 C440.81835634 598.3238633 438.57017465 595.44992789 436.32421875 592.57421875 C431.42461365 586.30926651 426.46865083 580.09746294 421.4375 573.9375 C416.71164336 568.15132846 412.12332089 562.28513519 407.59375 556.34375 C404.63788799 552.50112939 401.56887436 548.75252788 398.5 545 C394.57387237 540.19823246 390.69817104 535.37009043 386.9375 530.4375 C383.37116242 525.76317404 379.74393535 521.14666279 376.0625 516.5625 C372.16279739 511.70654847 368.28175443 506.83749818 364.4375 501.9375 C363.98624756 501.36249756 363.53499512 500.78749512 363.07006836 500.19506836 C360.81835634 497.3238633 358.57017465 494.44992789 356.32421875 491.57421875 C351.42461365 485.30926651 346.46865083 479.09746294 341.4375 472.9375 C336.71164336 467.15132846 332.12332089 461.28513519 327.59375 455.34375 C324.63788799 451.50112939 321.56887436 447.75252788 318.5 444 C314.57387237 439.19823246 310.69817104 434.37009043 306.9375 429.4375 C302.87657221 424.11492474 298.72364171 418.87524599 294.53100586 413.65600586 C291.16057615 409.45792147 287.81906085 405.23879339 284.5 401 C280.69571461 396.1430426 276.86002133 391.31277608 273 386.5 C266.37778123 378.24113955 259.84010502 369.91712242 253.32421875 361.57421875 C248.42461222 355.30926469 243.46857073 349.09752977 238.4375 342.9375 C234.5332111 338.15607379 230.68124883 333.34576852 226.9375 328.4375 C222.87657221 323.11492474 218.72364171 317.87524599 214.53100586 312.65600586 C211.16057615 308.45792147 207.81906085 304.23879339 204.5 300 C200.69571461 295.1430426 196.86002133 290.31277608 193 285.5 C186.37778123 277.24113955 179.84010502 268.91712242 173.32421875 260.57421875 C168.42461278 254.3092654 163.46860748 248.09749945 158.4375 241.9375 C154.01939993 236.52742246 149.69172553 231.06202268 145.45458984 225.50927734 C142.39708863 221.50371374 139.26945799 217.56154182 136.109375 213.63671875 C133.65388188 210.56735235 131.23353136 207.47155774 128.8125 204.375 C124.09936231 198.3475578 119.28739492 192.40505284 114.4152832 186.50537109 C113.63930786 185.55911865 113.63930786 185.55911865 112.84765625 184.59375 C112.39398682 184.04396484 111.94031738 183.49417969 111.47290039 182.92773438 C109.51847344 180.36977727 107.77764002 177.68285897 106 175 C105.96572745 234.41991913 105.93389095 293.83983928 105.91531372 353.25976562 C105.91489955 354.58111165 105.91489955 354.58111165 105.91447701 355.92915154 C105.90848974 375.07822597 105.90294959 394.2273005 105.89786934 413.3763752 C105.8953749 422.76849495 105.89278176 432.16061467 105.89013672 441.55273438 C105.88974444 442.95459976 105.88974444 442.95459976 105.88934424 444.38478565 C105.88083741 474.62025304 105.86582671 504.8557129 105.84740556 535.09117573 C105.82849357 566.18911378 105.81621829 597.28704767 105.81217002 628.38499136 C105.8115938 632.78787023 105.81094253 637.19074908 105.81024551 641.59362793 C105.81011067 642.4600889 105.80997582 643.32654986 105.80983689 644.21926722 C105.80748304 658.1083798 105.79823298 671.99747943 105.78633593 685.88658676 C105.77449468 699.8852554 105.77008061 713.88391135 105.77299725 727.88258481 C105.77437473 735.45295911 105.77260762 743.02329877 105.76158905 750.59366608 C105.59794077 792.84081814 105.59794077 792.84081814 108 835 C108.15596664 836.83210888 108.31183628 838.66422602 108.46758842 840.49635315 C108.83016518 844.69309834 109.2697216 848.87773699 109.75 853.0625 C109.83203674 853.79162598 109.91407349 854.52075195 109.99859619 855.27197266 C112.57862815 877.91076777 116.56057952 900.41195834 124 922 C124.23686523 922.7007666 124.47373047 923.4015332 124.71777344 924.12353516 C131.75314548 944.71333797 141.94084995 962.22916989 157 978 C157.54785156 978.61101563 158.09570312 979.22203125 158.66015625 979.8515625 C172.50105588 994.74668299 193.16613292 1003.44138276 212 1010 C213.65 1010.66 215.3 1011.32 217 1012 C217 1018.93 217 1025.86 217 1033 C151.33 1033 85.66 1033 18 1033 C18 1026.07 18 1019.14 18 1012 C20.454375 1010.80375 22.90875 1009.6075 25.4375 1008.375 C46.07942672 998.10706063 57.53650019 984.09404163 65.34375 962.23828125 C71.66223593 942.87142036 73.75346706 922.24270012 75 902 C75.04071178 901.34078855 75.08142355 900.6815771 75.12336902 900.00238955 C76.04612046 884.52642582 76.14644672 869.0748634 76.13466892 853.57550959 C76.13301184 849.91883485 76.1371963 846.26216551 76.14057809 842.60549259 C76.14569552 836.21669134 76.14715571 829.82789765 76.14612198 823.43909454 C76.14458839 813.93741415 76.14877791 804.43574204 76.1539966 794.93406327 C76.16363915 776.96830103 76.16647971 759.00254166 76.16705366 741.03677714 C76.16751433 727.15172504 76.16957851 713.26667405 76.17275429 699.38162231 C76.17365193 695.37550895 76.17454174 691.36939557 76.17542917 687.3632822 C76.17565021 686.36715325 76.17587126 685.3710243 76.17609901 684.34470962 C76.1822487 656.34499512 76.18620005 628.345281 76.18575573 600.3455658 C76.18574015 599.29109155 76.18572457 598.2366173 76.18570852 597.15018929 C76.18562542 591.80648888 76.18552638 586.46278847 76.18542381 581.11908805 C76.18540387 580.05794081 76.18538392 578.99679357 76.18536337 577.90349035 C76.18532294 575.75759166 76.18528114 573.61169297 76.18523798 571.46579428 C76.18462581 538.11065536 76.19212302 504.75552663 76.20581055 471.40039062 C76.22120757 433.86454566 76.22977455 396.32870739 76.22884732 358.79285908 C76.2287727 354.78171603 76.22872399 350.77057298 76.22869301 346.75942993 C76.22867553 345.2781336 76.22867553 345.2781336 76.22865769 343.7669121 C76.22862706 327.94867994 76.23498372 312.13045669 76.24362527 296.31222717 C76.25214759 280.38143541 76.2530562 264.45065652 76.24651595 248.51986372 C76.24316996 239.90773998 76.24292 231.29564562 76.2518692 222.68352509 C81.36698104 127.76428224 81.36698104 127.76428224 44.81640625 44.734375 C33.12440333 33.81350239 18.74853082 27.08899737 3.484375 22.76171875 C1 22 1 22 0 21 C-0.08685603 19.43827255 -0.10702219 17.87270656 -0.09765625 16.30859375 C-0.09443359 15.36435547 -0.09121094 14.42011719 -0.08789062 13.44726562 C-0.07951172 12.45404297 -0.07113281 11.46082031 -0.0625 10.4375 C-0.05798828 9.44041016 -0.05347656 8.44332031 -0.04882812 7.41601562 C-0.03700007 4.94395151 -0.02051849 2.47200482 0 0 Z " fill="#ffffff" transform="translate(12,15)"/>
<path d="M0 0 C1.31871094 0.97646484 1.31871094 0.97646484 2.6640625 1.97265625 C17.78764783 13.74845102 31.36972158 28.06037439 42 44 C42.68666748 45.02480469 42.68666748 45.02480469 43.38720703 46.0703125 C72.45129185 90.08773191 83.97581225 142.62686525 87.06408691 194.63253784 C87.1295335 195.73092725 87.1295335 195.73092725 87.19630224 196.85150634 C88.13241983 212.92118996 88.29805226 228.95986587 88.28735614 245.05267215 C88.28692569 249.11136134 88.29813551 253.17002333 88.30781555 257.22869873 C88.32307626 264.22345249 88.33163716 271.21818655 88.33552551 278.21295547 C88.3413518 288.36031845 88.36006091 298.50762939 88.38196605 308.65496896 C88.4174711 325.17540692 88.44587367 341.69584786 88.46826172 358.21630859 C88.46959671 359.1995154 88.4709317 360.18272221 88.47230715 361.19572316 C88.48308076 369.17044965 88.49350324 377.14517659 88.5039072 385.11990356 C88.51302087 392.09474713 88.52227373 399.06959049 88.53173828 406.04443359 C88.53373439 407.5183021 88.53373439 407.5183021 88.53577083 409.02194573 C88.5583183 425.49425258 88.58855942 441.96653699 88.62413073 458.43882072 C88.64558629 468.54286854 88.66035676 478.64688151 88.66596949 488.7509508 C88.6702661 495.68624916 88.6816304 502.62151425 88.69819343 509.55679406 C88.70745103 513.53458494 88.7137695 517.51231386 88.71113014 521.49011612 C88.11672648 582.16963749 88.11672648 582.16963749 104 640 C104.47824219 641.0621875 104.95648437 642.124375 105.44921875 643.21875 C114.38481877 661.39285174 128.18502373 671.3237181 147 678 C147 685.26 147 692.52 147 700 C126.80609396 700.06965413 106.61222221 700.12308951 86.41822052 700.15543652 C77.04032788 700.17085964 67.66251158 700.19186133 58.28466797 700.22631836 C50.10430804 700.25636096 41.92400345 700.27560804 33.74358988 700.28226548 C29.4181371 700.28615275 25.09284252 700.29519161 20.7674408 700.31719017 C16.68315239 700.33779106 12.59908496 700.343787 8.51474953 700.33932304 C7.02822983 700.34013783 5.54170151 700.34596132 4.05522728 700.35761642 C-8.74198691 700.45290102 -22.29877851 699.74612081 -33.75 693.5 C-34.85859375 692.9121875 -35.9671875 692.324375 -37.109375 691.71875 C-39.56127376 690.26086425 -41.85245273 688.87649762 -44 687 C-44 686.34 -44 685.68 -44 685 C-44.99 684.67 -45.98 684.34 -47 684 C-56.68640915 671.61667879 -60.31058401 657.88787033 -60.2784729 642.42037964 C-60.2842653 641.40319796 -60.2900577 640.38601628 -60.29602563 639.33801091 C-60.31292747 635.95561374 -60.31589366 632.57335383 -60.31884766 629.19091797 C-60.3281526 626.755973 -60.33832211 624.3210312 -60.34928894 621.88609314 C-60.37090379 616.65716907 -60.38654308 611.42826398 -60.39665604 606.19930649 C-60.41128785 598.6392656 -60.43683707 591.07929203 -60.46498732 583.51929082 C-60.51037382 571.2514852 -60.54702215 558.98366985 -60.578125 546.71582031 C-60.60834398 534.80401909 -60.64270956 522.89224163 -60.68261719 510.98046875 C-60.68630951 509.87772774 -60.68630951 509.87772774 -60.69007643 508.75270914 C-60.70245168 505.06434965 -60.71490809 501.37599044 -60.72740483 497.68763137 C-60.83085062 467.12512016 -60.91994754 436.56258196 -61 406 C-61.2747818 406.97450104 -61.5495636 407.94900208 -61.83267212 408.95303345 C-62.87735877 412.6543844 -63.92666706 416.35441317 -64.97720337 420.05410767 C-65.4266995 421.63941683 -65.87502892 423.22505739 -66.322052 424.81106567 C-76.71883653 461.68462432 -90.84122428 496.76396293 -108 531 C-108.48855469 531.9796875 -108.97710938 532.959375 -109.48046875 533.96875 C-126.28250573 567.4786949 -147.95650754 599.1221817 -173.66015625 626.44921875 C-176.05063471 628.98234892 -176.05063471 628.98234892 -178.18359375 631.83203125 C-179.08271484 632.90517578 -179.08271484 632.90517578 -180 634 C-180.66 634 -181.32 634 -182 634 C-182 634.66 -182 635.32 -182 636 C-182.66 636 -183.32 636 -184 636 C-184 636.66 -184 637.32 -184 638 C-184.66 638 -185.32 638 -186 638 C-186 638.66 -186 639.32 -186 640 C-186.66 640 -187.32 640 -188 640 C-188.33 640.99 -188.66 641.98 -189 643 C-190.390625 644.4375 -190.390625 644.4375 -192.25 646 C-192.97832031 646.61488281 -193.70664063 647.22976563 -194.45703125 647.86328125 C-195.29621094 648.56839844 -196.13539063 649.27351563 -197 650 C-197.93199219 650.81855469 -198.86398437 651.63710937 -199.82421875 652.48046875 C-248.40497392 694.95548856 -312.31889252 719.08439394 -377.11914062 714.79345703 C-427.22929702 710.94721897 -473.84006873 693.4480741 -510 658 C-510.48678223 657.52401367 -510.97356445 657.04802734 -511.47509766 656.55761719 C-547.60105355 620.68162672 -562.07217421 569.56110011 -562.375 519.8125 C-562.09908234 474.69134025 -547.18023206 432.78123892 -517.41015625 398.76953125 C-515.81856132 396.94061584 -514.28212456 395.06202728 -512.80859375 393.13671875 C-512.21175781 392.43160156 -511.61492188 391.72648437 -511 391 C-510.34 391 -509.68 391 -509 391 C-508.7834375 390.44828125 -508.566875 389.8965625 -508.34375 389.328125 C-506.53504366 386.19443611 -504.18448326 384.16603494 -501.5 381.75 C-501.00113281 381.29109375 -500.50226562 380.8321875 -499.98828125 380.359375 C-496.25897507 377 -496.25897507 377 -494 377 C-494 376.34 -494 375.68 -494 375 C-492.10251133 373.30061782 -490.20246442 371.73846001 -488.1875 370.1875 C-487.5672998 369.70611572 -486.94709961 369.22473145 -486.30810547 368.72875977 C-478.12361733 362.45946994 -469.59708491 356.68437129 -461 351 C-460.33274902 350.5580127 -459.66549805 350.11602539 -458.97802734 349.66064453 C-386.40584296 301.99268757 -297.93038347 278.4193309 -215.39328575 254.95882797 C-200.84879525 250.82453161 -186.31950325 246.63831736 -171.79296875 242.44140625 C-170.64755552 242.11054079 -169.5021423 241.77967533 -168.32201958 241.43878365 C-159.03587892 238.7563366 -149.75001443 236.07293399 -140.46422958 233.38925552 C-95.13523243 220.28947057 -95.13523243 220.28947057 -77.09955215 215.19282913 C-75.7219294 214.80342008 -74.34453012 214.41321942 -72.96737289 214.02216721 C-71.12631302 213.4998626 -69.28413869 212.98149089 -67.44189453 212.46337891 C-65.92283005 212.03504257 -65.92283005 212.03504257 -64.37307739 211.59805298 C-62 211 -62 211 -60 211 C-60.33 210.01 -60.66 209.02 -61 208 C-61.24363493 205.54427685 -61.44522604 203.10156383 -61.61328125 200.640625 C-61.72487239 199.12860928 -61.83720701 197.61664829 -61.95019531 196.10473633 C-62.00872681 195.31241608 -62.0672583 194.52009583 -62.12756348 193.70376587 C-65.90517001 143.58190884 -79.04911755 93.20006626 -116 57 C-116.93972656 56.26394531 -117.87945313 55.52789063 -118.84765625 54.76953125 C-119.55792969 54.18558594 -120.26820313 53.60164063 -121 53 C-121 52.34 -121 51.68 -121 51 C-121.79277344 50.64808594 -121.79277344 50.64808594 -122.6015625 50.2890625 C-125.73992261 48.60232173 -128.51731079 46.48772248 -131.375 44.375 C-177.97469817 10.67365007 -240.39176579 5.04948939 -295.94921875 13.734375 C-344.47611469 22.11139773 -389.62356723 43.22788019 -428 74 C-428.96550781 74.77214844 -429.93101562 75.54429688 -430.92578125 76.33984375 C-436.17947839 80.59076053 -441.26783607 84.96998174 -446.22265625 89.56640625 C-448 91 -448 91 -450 91 C-450 91.66 -450 92.32 -450 93 C-451.29296875 94.26953125 -451.29296875 94.26953125 -453.1875 95.8125 C-461.48319545 102.86826944 -469.2633243 110.72693936 -476.3125 119.02734375 C-479.12848629 122.31917958 -482.06753911 125.50072475 -484.984375 128.703125 C-486.77019535 130.73812959 -488.41203295 132.80900749 -490 135 C-494.12417063 133.3383196 -497.06554039 130.37661982 -500.25 127.375 C-501.08144531 126.6015625 -501.08144531 126.6015625 -501.9296875 125.8125 C-503.2902712 124.54574965 -504.64565837 123.27342185 -506 122 C-500.13048021 111.76033932 -491.57935434 103.23647182 -483.55273438 94.66601562 C-482.00951894 93.0102134 -480.47929297 91.3433923 -478.953125 89.671875 C-470.71536594 80.65571357 -462.38465228 71.73927048 -453.08203125 63.80078125 C-450.56846422 61.62675798 -448.13223771 59.37609512 -445.6875 57.125 C-404.31294161 19.48603786 -354.71644594 -9.57740259 -302 -28 C-301.01483398 -28.34659668 -300.02966797 -28.69319336 -299.01464844 -29.05029297 C-212.09651805 -59.25739378 -104.98959 -59.54776689 0 0 Z M-69 234.63867188 C-70.25657913 235.00257019 -71.51315826 235.36646851 -72.80781555 235.74139404 C-74.20522651 236.15045757 -75.60262075 236.55957819 -77 236.96875 C-78.47228109 237.39662406 -79.94467059 237.82412526 -81.41716003 238.25128174 C-85.4368592 239.41839008 -89.45513847 240.59032036 -93.47320175 241.76304626 C-97.71479331 243.00012831 -101.95763711 244.23289852 -106.20043945 245.46582031 C-111.55540955 247.0220917 -116.91031195 248.57859183 -122.26472473 250.13677979 C-134.36319626 253.65693039 -146.46640261 257.16036429 -158.57342148 260.65100098 C-161.35151843 261.45198604 -164.1295235 262.25328903 -166.90750122 263.0546875 C-181.87778797 267.37314631 -181.87778797 267.37314631 -188.36889648 269.24194336 C-199.58591605 272.47192702 -210.79818827 275.71762456 -222 279 C-222.75805435 279.22204479 -223.5161087 279.44408958 -224.2971344 279.67286301 C-240.8863526 284.53871492 -257.40024329 289.39680901 -273.375 296.0625 C-274.85159319 296.66702553 -276.32840461 297.27101827 -277.80541992 297.87451172 C-292.46654945 303.89965836 -306.60258454 310.61395219 -320.5625 318.125 C-321.45557861 318.60404785 -322.34865723 319.0830957 -323.26879883 319.57666016 C-329.49120313 322.98847701 -335.24073919 326.86288228 -341 331 C-342.14126399 331.78342684 -343.28535351 332.56277163 -344.43359375 333.3359375 C-356.14762039 341.28746144 -366.70607956 350.3150157 -377 360 C-378.06347656 360.98226562 -378.06347656 360.98226562 -379.1484375 361.984375 C-405.79635804 387.43585829 -422.98122111 424.97886704 -424.23828125 461.6875 C-424.93050909 496.87379303 -418.07824055 534.02575114 -394 561 C-392.93652344 562.26070312 -392.93652344 562.26070312 -391.8515625 563.546875 C-370.18305584 588.73553617 -337.54267484 602.5893857 -304.8671875 605.7890625 C-256.96108193 609.31348989 -216.11792084 593.84108471 -179.8125 563.0625 C-169.20447737 553.89713238 -159.65556027 544.03583935 -151 533 C-150.3709375 532.23816406 -149.741875 531.47632813 -149.09375 530.69140625 C-138.89115068 518.29357552 -129.89716538 504.96848834 -122 491 C-121.31188232 489.78401123 -121.31188232 489.78401123 -120.60986328 488.54345703 C-89.76216874 433.69294049 -70.29664408 373.07214813 -62.6875 310.625 C-62.60600708 309.96042786 -62.52451416 309.29585571 -62.44055176 308.61114502 C-60.25812193 290.51793419 -59.86038457 272.63819734 -59.9375 254.4375 C-59.9425303 252.34700629 -59.94709047 250.2565114 -59.95117188 248.16601562 C-59.96204419 243.11064707 -59.97922245 238.05533715 -60 233 C-63.33652821 233 -65.79464432 233.70491831 -69 234.63867188 Z " fill="#ffffff" transform="translate(3066,1414)"/>
<path d="M0 0 C253.77 0 507.54 0 769 0 C769.79910114 3.99550568 770.21978677 7.49882805 770.42396545 11.53659058 C770.47424972 12.50105077 770.47424972 12.50105077 770.52554983 13.48499501 C770.63654576 15.63159574 770.74222442 17.77842426 770.84790039 19.92529297 C770.92655539 21.46819105 771.00552772 23.01107298 771.08479309 24.55393982 C771.29896994 28.74236228 771.50842187 32.93100873 771.71682668 37.11972189 C771.93613467 41.51572859 772.15908841 45.91155069 772.38145447 50.30740356 C772.75479581 57.69991968 773.12498382 65.09258888 773.4934082 72.48535156 C773.91777521 80.99969966 774.34750455 89.51376439 774.78007513 98.02769935 C775.15230792 105.35692187 775.52156484 112.68629006 775.88840669 120.01578438 C776.10704859 124.38417803 776.32667522 128.75251572 776.54899788 133.12072372 C776.75845182 137.23932385 776.96413218 141.35809659 777.16708183 145.47702217 C777.24157233 146.97691948 777.3172996 148.47675604 777.39445496 149.97651863 C777.89166137 159.66106873 778.09033998 169.30420433 778 179 C763.66964286 182.21428571 763.66964286 182.21428571 759 182 C758.57332031 181.1234375 758.14664063 180.246875 757.70703125 179.34375 C738.62265208 140.47844324 716.42938021 102.23585662 682 75 C680.98808594 74.18273438 679.97617187 73.36546875 678.93359375 72.5234375 C652.45741126 51.37613029 620.06987536 39.9799205 587 34 C585.98164062 33.81453613 584.96328125 33.62907227 583.9140625 33.43798828 C554.93163486 28.31686488 525.74971308 27.91408033 496.40950775 27.48064804 C492.85622763 27.42759027 489.30299452 27.37154962 485.74975586 27.3157959 C478.83321265 27.20769038 471.91662452 27.10276879 465 27 C465.07829613 106.65957941 465.15779861 186.3191576 465.2436676 265.97872925 C465.24493928 267.15876707 465.24621096 268.33880489 465.24752118 269.55460144 C465.27516913 295.20345025 465.30303228 320.85229882 465.33111694 346.50114716 C465.34488946 359.08035457 465.35861445 371.65956204 465.37231445 384.23876953 C465.37367854 385.49051462 465.37504262 386.74225971 465.37644804 388.03193647 C465.42059516 428.56376055 465.46160735 469.09558707 465.50098413 509.62741604 C465.54148439 551.29857292 465.58516676 592.96972529 465.63282111 634.64087463 C465.63955911 640.53418204 465.64626095 646.42748949 465.65294075 652.32079697 C465.65491434 654.06053254 465.65491434 654.06053254 465.6569278 655.83541428 C465.67796687 674.46334332 465.69567728 693.09127409 465.71212531 711.71920769 C465.72875527 730.47200424 465.74893389 749.22479437 465.77266841 767.9775833 C465.78664256 779.10241741 465.79796228 790.22724659 465.80536438 801.35208705 C465.81059334 808.80588624 465.81940337 816.25967594 465.83098774 823.71346794 C465.83746751 827.9461319 465.84252162 832.17878238 465.84316199 836.41145159 C462.53902586 919.74670094 462.53902586 919.74670094 494.24609375 993.31640625 C502.95961645 1001.80745603 512.85541193 1006.60970773 524 1011 C524 1018.26 524 1025.52 524 1033 C432.92 1033 341.84 1033 248 1033 C248 1025.74 248 1018.48 248 1011 C249.93875 1010.13375 251.8775 1009.2675 253.875 1008.375 C272.9294553 999.50909835 285.36242736 986.74140096 292.96679688 967.015625 C303.03195221 939.11671557 304.70589584 908.77892463 305.54479885 879.40237617 C305.56605065 878.67338657 305.58730245 877.94439696 305.60919825 877.19331676 C306.08098979 860.69686381 306.15467924 844.20581116 306.1572054 827.70365069 C306.15897511 823.41616209 306.16648131 819.12868226 306.17318195 814.84119904 C306.18411137 807.36610711 306.19155982 799.8910184 306.19658089 792.41592026 C306.20406327 781.30112502 306.21716266 770.18634108 306.23132664 759.0715526 C306.25501031 740.36496437 306.27426711 721.65837411 306.29092598 702.95177841 C306.30741484 684.45264279 306.32591727 665.95351095 306.34705925 647.45438004 C306.34837686 646.30050397 306.34969446 645.1466279 306.351052 643.95778589 C306.35775487 638.096893 306.36449324 632.23600014 306.37124526 626.3751073 C306.4189006 584.95401402 306.46211624 543.53291719 306.50268555 502.11181641 C306.54208748 461.89306379 306.58352245 421.67431409 306.62768555 381.45556641 C306.62904808 380.21399567 306.63041061 378.97242492 306.63181442 377.69323083 C306.6455008 365.22390232 306.65922824 352.75457386 306.67298577 340.28524543 C306.70100592 314.88792796 306.7287521 289.49061019 306.7563324 264.09329224 C306.7576006 262.92578233 306.7588688 261.75827243 306.76017542 260.55538344 C306.84470997 182.70359373 306.92285972 104.85179735 307 27 C298.98137808 27.11462718 290.96280044 27.23189137 282.94426334 27.3522923 C279.21874881 27.40815414 275.49322636 27.46319223 271.76766968 27.51617432 C192.96090137 28.63994212 120.82512005 37.94379021 63.03515625 96.8125 C59.02704563 100.96997354 55.43323013 105.35788602 52 110 C51.24589844 111.010625 50.49179688 112.02125 49.71484375 113.0625 C33.9435993 134.50366362 20.93073332 157.75949141 10 182 C3.4491015 181.54240047 -2.6753842 180.7899856 -9 179 C-9.10172589 168.94482538 -8.79723956 158.95025412 -8.28149414 148.91015625 C-8.20401092 147.35135813 -8.12682558 145.79254518 -8.0499115 144.23371887 C-7.8423661 140.04609407 -7.63045439 135.85870132 -7.41749883 131.67134857 C-7.19429684 127.27140262 -6.97456052 122.87128326 -6.7542572 118.47119141 C-6.38434737 111.09443501 -6.01150171 103.71783131 -5.63696289 96.34130859 C-5.20444025 87.82192293 -4.77698583 79.30229395 -4.35212237 70.78252316 C-3.98610038 63.44534725 -3.61736121 56.10831157 -3.24635214 48.77138615 C-3.02523019 44.39853395 -2.80503708 40.02564045 -2.58729744 35.65261841 C-2.38278864 31.54837095 -2.17486421 27.44431037 -1.96431923 23.34036827 C-1.88773698 21.83680937 -1.81233372 20.33318988 -1.73820877 18.82950783 C-1.63668743 16.77401734 -1.5308594 14.71879133 -1.42396545 12.66357422 C-1.3658925 11.51476776 -1.30781954 10.3659613 -1.24798679 9.18234253 C-1.0080075 6.10275787 -0.50781545 3.04689271 0 0 Z " fill="#ffffff" transform="translate(106,1081)"/>
<path d="M0 0 C1.16470322 -0.00701431 2.32940643 -0.01402863 3.52940369 -0.02125549 C7.27354842 -0.03868055 11.01753494 -0.04510904 14.76171875 -0.046875 C16.68062927 -0.04788712 16.68062927 -0.04788712 18.63830566 -0.04891968 C37.75731442 -0.03288678 56.50916274 0.38040694 75.44921875 3.203125 C76.65739258 3.38004883 77.86556641 3.55697266 79.11035156 3.73925781 C96.10844006 6.30025007 112.82551319 9.84364303 129.44921875 14.203125 C130.34511719 14.43612305 131.24101563 14.66912109 132.1640625 14.90917969 C161.20412819 22.55754766 189.16470292 33.72932228 215.5 48.13818359 C217.17461894 49.0530994 218.85798325 49.95197583 220.54296875 50.84765625 C244.73898895 63.76406115 267.06653798 79.66813559 287.2734375 98.2109375 C289.98866636 100.69705369 292.77006629 103.10129339 295.5625 105.5 C305.76745931 114.71193014 315.01760396 125.37473712 323.44921875 136.203125 C323.9891748 136.89229004 324.52913086 137.58145508 325.08544922 138.29150391 C347.0604547 166.48708958 364.24698372 197.60316454 376.44921875 231.203125 C376.98385742 232.66081299 376.98385742 232.66081299 377.52929688 234.14794922 C393.18320263 277.34033282 399.40036375 323.42934454 400.44921875 369.203125 C400.47113281 370.00443848 400.49304687 370.80575195 400.515625 371.63134766 C402.33376109 445.25070809 382.54616419 521.20238156 342.44921875 583.203125 C341.74667969 584.3065625 341.04414062 585.41 340.3203125 586.546875 C328.07677758 605.34502962 314.09127198 624.18432382 297.88671875 639.765625 C296.20733429 641.39570362 296.20733429 641.39570362 294.01171875 644.203125 C291.40845149 647.25085252 288.65297117 649.70448977 285.609375 652.29296875 C283.34269879 654.29731715 281.24558611 656.4088965 279.13671875 658.578125 C274.72029996 663.03197107 270.04221081 667.00064139 265.11767578 670.88085938 C263.29823062 672.32278431 261.49745834 673.78652157 259.6953125 675.25 C210.43941085 714.82585386 152.85915695 741.11352132 91.44921875 755.203125 C90.55912109 755.40921387 89.66902344 755.61530273 88.75195312 755.82763672 C25.10764286 770.20662947 -44.10711586 764.80438043 -106.55078125 747.203125 C-107.61731934 746.90712402 -108.68385742 746.61112305 -109.78271484 746.30615234 C-156.5947738 733.15558001 -201.25851103 711.25232637 -239.55078125 681.203125 C-240.40542969 680.54054688 -241.26007813 679.87796875 -242.140625 679.1953125 C-247.34843571 675.10288806 -252.31338905 670.7985443 -257.203125 666.33203125 C-259.18336929 664.53630223 -261.19643475 662.80244894 -263.23828125 661.078125 C-272.711051 652.79907826 -281.67637662 643.74096465 -289.45703125 633.85546875 C-291.68750057 631.02993019 -294.02005071 628.31065808 -296.36328125 625.578125 C-352.13071742 558.46815944 -372.74707416 470.87350534 -372.80078125 385.328125 C-372.80145599 384.347229 -372.80213074 383.36633301 -372.80282593 382.35571289 C-372.78486002 365.79483904 -371.98600045 349.60818699 -369.55078125 333.203125 C-369.3791748 332.02476074 -369.20756836 330.84639648 -369.03076172 329.63232422 C-359.68128153 267.14370732 -336.05707709 208.07721837 -298.55078125 157.203125 C-297.90761963 156.33034912 -297.90761963 156.33034912 -297.25146484 155.43994141 C-291.95210479 148.30038219 -286.32782374 141.48112492 -280.484375 134.7824707 C-278.34069011 132.32259229 -276.3637951 129.92264578 -274.55078125 127.203125 C-273.89078125 127.203125 -273.23078125 127.203125 -272.55078125 127.203125 C-272.30924316 126.63634033 -272.06770508 126.06955566 -271.81884766 125.4855957 C-270.29895021 122.74983883 -268.48082915 120.8909616 -266.26171875 118.68359375 C-265.40191406 117.82572266 -264.54210937 116.96785156 -263.65625 116.08398438 C-262.75519531 115.19517578 -261.85414063 114.30636719 -260.92578125 113.390625 C-260.04792969 112.51341797 -259.17007813 111.63621094 -258.265625 110.73242188 C-253.18660867 105.68736628 -248.00426116 100.83961802 -242.55078125 96.203125 C-241.49478829 95.29036849 -240.43879851 94.3776083 -239.3828125 93.46484375 C-222.17299888 78.79308802 -203.92559384 65.86425135 -184.55078125 54.203125 C-183.7820166 53.73793457 -183.01325195 53.27274414 -182.22119141 52.79345703 C-128.38237618 20.44260901 -62.98670652 0.25483673 0 0 Z M-180.55078125 85.203125 C-181.4325 86.03199219 -182.31421875 86.86085938 -183.22265625 87.71484375 C-199.350873 103.31912125 -212.19283868 122.37114051 -222.55078125 142.203125 C-223.1845166 143.39760254 -223.1845166 143.39760254 -223.83105469 144.61621094 C-248.96876487 192.52292085 -258.04799762 248.28036703 -257.86328125 301.890625 C-257.86145844 302.99774841 -257.85963562 304.10487183 -257.85775757 305.24554443 C-257.80418414 324.70125105 -256.94895424 343.89537339 -254.55078125 363.203125 C-254.46828125 363.87635803 -254.38578125 364.54959106 -254.30078125 365.2432251 C-246.61356804 427.3747563 -227.45097569 487.24630363 -199.55078125 543.203125 C-198.86048828 544.58975342 -198.86048828 544.58975342 -198.15625 546.00439453 C-181.93060967 578.35631068 -161.33492159 607.99434242 -137.55078125 635.203125 C-136.46410156 636.45996094 -136.46410156 636.45996094 -135.35546875 637.7421875 C-130.5959986 643.15314406 -125.56990349 648.28447079 -120.48828125 653.390625 C-119.82731445 654.05626465 -119.16634766 654.7219043 -118.48535156 655.40771484 C-114.00384078 659.87478347 -109.35837237 664.09057673 -104.55078125 668.203125 C-103.10832031 669.45029297 -103.10832031 669.45029297 -101.63671875 670.72265625 C-89.38874089 681.08225712 -76.29308198 689.94653378 -62.55078125 698.203125 C-61.65560791 698.74662598 -60.76043457 699.29012695 -59.83813477 699.85009766 C-33.72882395 715.4416425 -5.35876615 724.14631999 24.44921875 729.203125 C25.20879883 729.33589844 25.96837891 729.46867187 26.75097656 729.60546875 C79.88420385 738.48178452 140.84503241 726.31681809 184.97827148 695.43334961 C187.40200425 693.69068165 189.80400091 691.92224091 192.19921875 690.140625 C192.99714844 689.55474609 193.79507812 688.96886719 194.6171875 688.36523438 C200.84554444 683.75788659 207.26862249 679.00539281 212.44921875 673.203125 C212.44921875 672.543125 212.44921875 671.883125 212.44921875 671.203125 C213.43921875 670.873125 214.42921875 670.543125 215.44921875 670.203125 C218.02952528 667.77375562 220.19828344 664.93526732 222.44921875 662.203125 C223.11002441 661.40865967 223.11002441 661.40865967 223.78417969 660.59814453 C261.22195688 615.44660944 279.08391955 559.91998984 285.44921875 502.203125 C285.6049939 500.87571289 285.6049939 500.87571289 285.76391602 499.52148438 C286.85942615 488.75107417 286.64788289 477.89142144 286.63671875 467.078125 C286.6361145 466.00355042 286.63551025 464.92897583 286.6348877 463.82183838 C286.6104824 447.85452573 286.30236006 432.07845383 284.44921875 416.203125 C284.32562988 415.08615234 284.20204102 413.96917969 284.07470703 412.81835938 C274.81892762 330.8289825 246.94373747 249.96000798 125.63671875 89.265625 C123.91068088 87.90747258 122.18172089 86.55302169 120.44921875 85.203125 C119.71316406 84.58824219 118.97710938 83.97335937 118.21875 83.33984375 C42.54416705 20.42964829 -73.89743797 6.47158837 -180.55078125 85.203125 Z " fill="#ffffff" transform="translate(1213.55078125,299.796875)"/>
<path d="M0 0 C0.33 0 0.66 0 1 0 C1.84619343 5.30877124 2.2575756 10.53633942 2.49316406 15.90429688 C2.53415977 16.77495442 2.57515549 17.64561197 2.61739349 18.54265308 C2.70623019 20.43688476 2.79356581 22.3311873 2.87957001 24.2255497 C3.01859472 27.28408368 3.16183006 30.34239508 3.30621338 33.40068054 C3.5139167 37.80233782 3.72039314 42.20404993 3.92602539 46.60580444 C10.24779985 190.11841385 10.24779985 190.11841385 64 454 C64.42249023 454.86125488 64.84498047 455.72250977 65.28027344 456.60986328 C71.288032 468.77239276 77.93482158 480.09554959 86 491 C86.41121094 491.57202148 86.82242188 492.14404297 87.24609375 492.73339844 C102.71050225 514.18841246 122.77612483 530.94689114 145.08544922 544.81005859 C146.72157374 545.82695109 148.34813979 546.85919553 149.97265625 547.89453125 C211.6234689 585.77208089 292.61037356 594.55318477 363 602 C363.94697754 602.10098999 364.89395508 602.20197998 365.86962891 602.30603027 C406.80714897 606.6555134 447.85279877 609.323216 488.93353271 611.87158203 C492.0755549 612.06683899 495.21745094 612.26410863 498.359375 612.4609375 C518.36501158 613.70764461 538.37324805 614.81868023 558.39933586 615.67791748 C560.70388074 615.77687301 563.0083845 615.87674217 565.31288147 615.97680664 C572.09821962 616.27056977 578.88355844 616.56014586 585.67009068 616.82508373 C587.78354879 616.90879196 589.89679844 616.99648216 592.01002502 617.08583069 C594.61018202 617.19536091 597.21064362 617.29794895 599.81138611 617.39256287 C600.96675369 617.44292191 602.12212128 617.49328094 603.3125 617.54516602 C604.82263672 617.60487328 604.82263672 617.60487328 606.36328125 617.66578674 C609.0078793 618.00099873 610.72081809 618.65348176 613 620 C610.08312008 620.97229331 607.93845008 621.20591602 604.88903809 621.35235596 C603.8290007 621.4054039 602.76896332 621.45845184 601.67680359 621.5131073 C600.51179825 621.56711197 599.34679291 621.62111664 598.14648438 621.67675781 C596.91742874 621.73714737 595.68837311 621.79753693 594.42207336 621.85975647 C591.73439937 621.99139811 589.04669802 622.12151958 586.35884094 622.24927521 C582.0300932 622.45534404 577.70173515 622.66892728 573.37341309 622.88372803 C561.80717351 623.45667276 550.24058538 624.02241792 538.67353356 624.57873154 C504.64178889 626.2156417 470.64047294 628.01705179 436.6640625 630.578125 C435.97582712 630.6298351 435.28759174 630.6815452 434.57850075 630.73482227 C408.0105893 632.73404043 381.48750362 635.12486268 355 638 C354.08766602 638.09841187 353.17533203 638.19682373 352.23535156 638.29821777 C289.36386824 645.10741388 223.27125815 654.90252815 166 683 C164.69506592 683.63808594 164.69506592 683.63808594 163.36376953 684.2890625 C132.63262521 699.474255 105.28484106 721.21455701 85 749 C84.59749023 749.54221191 84.19498047 750.08442383 83.78027344 750.64306641 C29.98388662 823.90380413 22.13148127 929.97025028 5.75 1147.0625 C5.68416718 1148.28061874 5.61833435 1149.49873749 5.55050659 1150.75376892 C3.64672356 1184.886057 3.64672356 1184.886057 2.30316162 1219.04347229 C2.09982086 1225.7199142 1.60869115 1232.34847722 1 1239 C0.67 1239 0.34 1239 0 1239 C-1.4119344 1223.15207404 -2.3432593 1207.29612935 -3.11328125 1191.40625 C-3.16077892 1190.42699869 -3.2082766 1189.44774738 -3.25721359 1188.43882179 C-3.45564701 1184.33681604 -3.6530773 1180.23476339 -3.84942055 1176.13265705 C-10.23842306 1030.78656558 -10.23842306 1030.78656558 -102.61621094 727.47167969 C-103.90578952 726.1001942 -105.17635291 724.71089761 -106.4453125 723.3203125 C-132.5633417 695.72853871 -169.46650526 678.61940621 -205 667 C-205.94230469 666.68869141 -206.88460937 666.37738281 -207.85546875 666.05664062 C-249.24551142 652.51972988 -292.83296588 645.15195326 -336 640 C-336.95874023 639.88547485 -337.91748047 639.77094971 -338.90527344 639.6529541 C-422.24522249 629.76747419 -506.12790538 625.80596853 -589.92089844 621.89990234 C-591.08107986 621.84512726 -592.24126129 621.79035217 -593.43659973 621.73391724 C-595.54122671 621.63484332 -597.64594529 621.53768275 -599.7507782 621.44308472 C-606.1872201 621.1393234 -612.58765372 620.63283031 -619 620 C-619 619.67 -619 619.34 -619 619 C-600.1586065 617.71067581 -581.32653007 616.64698092 -562.45684814 615.853302 C-474.10765335 612.09183209 -384.81034966 607.69824431 -205 572 C-203.65204346 571.57533447 -203.65204346 571.57533447 -202.27685547 571.14208984 C-187.99873819 566.58408595 -174.4736834 560.53808203 -161 554 C-160.26378418 553.64292969 -159.52756836 553.28585937 -158.76904297 552.91796875 C-104.61034179 526.2568577 -70.44470162 478.51679477 -50 423 C-49.6498584 422.05672852 -49.2997168 421.11345703 -48.93896484 420.14160156 C-17.89862461 335.31878756 -13.70679803 239.83675908 -3.27142334 62.16571045 C-3.0130799 57.24334801 -2.7523858 52.32111276 -2.49072266 47.39892578 C-2.45067738 46.64558016 -2.4106321 45.89223454 -2.36937332 45.11606026 C-2.29083532 43.63875806 -2.21229208 42.16145614 -2.13374329 40.68415451 C-1.41302738 27.12326127 -0.70182337 13.5618844 0 0 Z " fill="#ffffff" transform="translate(3503,189)"/>
<path d="M0 0 C0.33 0 0.66 0 1 0 C1.82373322 6.7920787 2.30551128 13.55094085 2.6484375 20.3828125 C2.76579677 22.60972153 2.88356962 24.83660879 3.00170898 27.06347656 C3.09269363 28.79410339 3.09269363 28.79410339 3.18551636 30.55969238 C4.07562306 106.54303733 4.07562306 106.54303733 38 171 C57.5405884 185.77398255 79.93441519 191.1376436 103.75 194.6875 C104.43278015 194.79032288 105.1155603 194.89314575 105.81903076 194.99908447 C129.23377136 198.47774556 152.84116837 199.56831964 176.46313477 200.67724609 C180.10476041 200.84996955 183.74570656 201.03360549 187.38671875 201.21875 C188.49697922 201.26777466 189.60723969 201.31679932 190.75114441 201.36730957 C191.77774673 201.42076538 192.80434906 201.47422119 193.86206055 201.52929688 C195.21028145 201.59352844 195.21028145 201.59352844 196.58573914 201.65905762 C199.10128502 202.01430349 200.81301189 202.73567452 203 204 C202.44101013 204.03092239 201.88202026 204.06184479 201.30609131 204.09370422 C110.43391597 203.79932407 110.43391597 203.79932407 32.125 241.47265625 C-2.31629856 282.4350095 3.63297999 355.89148817 1 406 C0.67 406 0.34 406 0 406 C-0.73990439 401.92129461 -1.19488182 397.93798469 -1.41723633 393.79980469 C-1.48449921 392.58747665 -1.55176208 391.37514862 -1.62106323 390.12608337 C-1.7254924 388.16875023 -1.7254924 388.16875023 -1.83203125 386.171875 C-1.98845019 383.35708166 -2.14762396 380.54244464 -2.30639648 377.7277832 C-2.34723232 376.99845361 -2.38806816 376.26912401 -2.43014145 375.51769352 C-3.45068733 299.27163561 -3.45068733 299.27163561 -38 235 C-78.92352262 200.90770503 -151.65909404 206.47877339 -202 204 C-198.94004191 202.24349583 -196.59240179 201.70828326 -193.08081055 201.54516602 C-192.09894272 201.49481201 -191.11707489 201.44445801 -190.10545349 201.39257812 C-189.04327103 201.34681641 -187.98108856 201.30105469 -186.88671875 201.25390625 C-185.77728409 201.198396 -184.66784943 201.14288574 -183.52479553 201.08569336 C-181.14678446 200.96673948 -178.76859512 200.8513072 -176.39025879 200.73904419 C-170.20549356 200.44416018 -164.02265331 200.11434917 -157.83984375 199.78125 C-156.62676544 199.71595596 -155.41368713 199.65066193 -154.16384888 199.58338928 C-89.36308916 197.44857288 -89.36308916 197.44857288 -34 168 C2.51788902 125.18818397 -2.93511402 52.97959845 0 0 Z " fill="#ffffff" transform="translate(3855,266)"/>
<path d="M0 0 C1.66863505 3.05983764 2.62619202 6.00065023 3.48046875 9.375 C3.75358887 10.43275635 4.02670898 11.4905127 4.30810547 12.58032227 C4.59830566 13.70881592 4.88850586 14.83730957 5.1875 16 C13.47069109 47.27738152 23.17614844 73.77305722 52.09375 90.82421875 C70.25101655 100.63002411 91.04537794 105.35889283 111 110 C111 110.66 111 111.32 111 112 C110.29206299 112.17539307 109.58412598 112.35078613 108.85473633 112.53149414 C70.29487743 121.48479012 70.29487743 121.48479012 37 142 C36.25621094 142.65226562 35.51242188 143.30453125 34.74609375 143.9765625 C13.83649549 163.4355795 7.27571207 195.31167199 1 222 C0.34 222 -0.32 222 -1 222 C-1.20044922 221.2064209 -1.40089844 220.4128418 -1.60742188 219.59521484 C-11.07840198 180.62931041 -11.07840198 180.62931041 -32 147 C-32.60328125 146.30261719 -33.2065625 145.60523438 -33.828125 144.88671875 C-52.69951171 124.46914699 -85.09581578 118.09132208 -111 112 C-111 111.34 -111 110.68 -111 110 C-110.38294189 109.8548999 -109.76588379 109.7097998 -109.13012695 109.56030273 C-59.99423503 98.11509254 -59.99423503 98.11509254 -23.80126953 65.06494141 C-14.52687145 49.30410832 -9.39316645 32.49308724 -4.71459961 14.93847656 C-4.22938843 13.12234863 -4.22938843 13.12234863 -3.734375 11.26953125 C-3.44788086 10.18260986 -3.16138672 9.09568848 -2.86621094 7.97583008 C-2.06623051 5.22753203 -1.11414761 2.63435504 0 0 Z " fill="#ffffff" transform="translate(3253,985)"/>
<path d="M0 0 C0.33 0 0.66 0 1 0 C1.03092239 0.54583237 1.06184479 1.09166473 1.09370422 1.65403748 C1.02500011 61.3487419 1.02500011 61.3487419 24 114 C38.15966027 126.4236901 56.26638616 130.20190812 74.49609375 132.546875 C75.96496788 132.73664665 75.96496788 132.73664665 77.46351624 132.93025208 C89.58276228 134.4165584 101.75000999 135.04669557 113.9375 135.6875 C116.28975697 135.81757648 118.64197097 135.94843232 120.99414062 136.08007812 C126.66229932 136.39565695 132.33090202 136.7017951 138 137 C138 137.66 138 138.32 138 139 C137.00073486 139.04487549 136.00146973 139.08975098 134.97192383 139.13598633 C79.48984479 139.22947696 79.48984479 139.22947696 29 158 C28.36707031 158.43828125 27.73414062 158.8765625 27.08203125 159.328125 C12.73192936 170.35204434 8.56731108 191.02252947 6 208 C3.05041099 230.54759692 2.06267359 253.30228418 1 276 C-1.01886411 272.97170384 -1.27379782 272.16373085 -1.45483398 268.72583008 C-1.50518799 267.86173019 -1.55554199 266.99763031 -1.60742188 266.10734558 C-1.65318359 265.17086685 -1.69894531 264.23438812 -1.74609375 263.26953125 C-1.86054217 261.25992534 -1.97504624 259.25032259 -2.08959961 257.24072266 C-2.17442093 255.66426971 -2.17442093 255.66426971 -2.26095581 254.05596924 C-3.18086903 203.17940831 -3.18086903 203.17940831 -26.0625 159.8125 C-53.9115212 136.53570616 -104.18419757 140.23002919 -138 139 C-138 138.34 -138 137.68 -138 137 C-137.13486786 136.95694733 -137.13486786 136.95694733 -136.2522583 136.9130249 C-74.09854278 137.3900797 -74.09854278 137.3900797 -21 111 C-1.77390854 85.46740018 -3.15036165 46.85358185 -1.64599609 16.41210938 C-1.6092981 15.68858276 -1.5726001 14.96505615 -1.53479004 14.21960449 C-1.4361278 12.25334969 -1.34263898 10.28683723 -1.24951172 8.3203125 C-1.03428414 5.45622727 -0.64343897 2.79421173 0 0 Z " fill="#ffffff" transform="translate(3225,343)"/>
<path d="M0 0 C0.33 0 0.66 0 1 0 C1.07516846 0.82089111 1.15033691 1.64178223 1.2277832 2.48754883 C1.51640596 5.58778923 1.81385553 8.68703153 2.11694336 11.78588867 C2.30790046 13.7648336 2.48903321 15.74471874 2.66992188 17.72460938 C3.83573329 32.80899265 3.83573329 32.80899265 11.11206055 45.5847168 C19.33278335 51.74733546 30.32849056 51.973126 40.1875 52.75 C41.63097901 52.87492737 43.07434047 53.00122078 44.51757812 53.12890625 C48.01050804 53.43499236 51.5046529 53.72269799 55 54 C51.86681663 55.81190648 49.41517935 56.30120463 45.81640625 56.4921875 C44.30977417 56.58669189 44.30977417 56.58669189 42.77270508 56.68310547 C41.7133374 56.74643066 40.65396973 56.80975586 39.5625 56.875 C23.03593355 57.92648346 23.03593355 57.92648346 9 66 C2.95415103 75.2240294 2.70835329 87.53833789 1.875 98.1875 C1.78863281 99.23486328 1.70226563 100.28222656 1.61328125 101.36132812 C1.40403141 103.9072012 1.19967344 106.4533611 1 109 C0.67 109 0.34 109 0 109 C-0.07516846 108.17387207 -0.15033691 107.34774414 -0.2277832 106.49658203 C-0.51601947 103.38328177 -0.81350391 100.27103213 -1.11694336 97.15917969 C-1.30824333 95.16927789 -1.48920116 93.17839047 -1.66992188 91.1875 C-3.02884545 76.57033768 -3.02884545 76.57033768 -10 64 C-20.3645176 57.02388238 -34.5307421 56.70765489 -46.671875 56.30859375 C-49.80358352 56.01821233 -51.31764599 55.46798584 -54 54 C-52.7310791 53.89510254 -52.7310791 53.89510254 -51.43652344 53.78808594 C-48.23712919 53.5164475 -45.03925634 53.23146402 -41.84179688 52.93798828 C-40.4692065 52.81463457 -39.09615386 52.69630021 -37.72265625 52.58349609 C-22.32653001 51.44279366 -22.32653001 51.44279366 -9 44.4375 C-3.45643243 34.90949323 -2.13206102 25.1209808 -1.25 14.3125 C-1.12505703 12.91719534 -0.99876317 11.52201096 -0.87109375 10.12695312 C-0.56748619 6.75223828 -0.27744362 3.37694916 0 0 Z " fill="#ffffff" transform="translate(4003,276)"/>
<path d="M0 0 C0.33 0 0.66 0 1 0 C1.06731323 1.07930786 1.06731323 1.07930786 1.13598633 2.18041992 C1.08140431 25.79858508 1.08140431 25.79858508 11 46 C20.07175072 52.27280793 31.44247275 52.43619441 42.0625 53.125 C43.30966797 53.21136719 44.55683594 53.29773438 45.84179688 53.38671875 C48.89417099 53.59722731 51.94682561 53.80149739 55 54 C55 54.33 55 54.66 55 55 C51.61108218 55.73579685 48.32559012 56.19261699 44.8671875 56.4296875 C43.89523438 56.50316406 42.92328125 56.57664062 41.921875 56.65234375 C39.91449671 56.79903678 37.90667565 56.93980911 35.8984375 57.07421875 C26.92524477 57.77082187 16.9817132 58.84944314 10 65 C2.54660201 74.16060088 2.58325862 85.21294581 1.875 96.5625 C1.78863281 97.85736328 1.70226563 99.15222656 1.61328125 100.48632812 C1.40266983 103.65720009 1.19840787 106.82834501 1 110 C-1.55098816 107.44901184 -1.32698994 106.30702226 -1.52734375 102.7578125 C-1.59759766 101.69046875 -1.66785156 100.623125 -1.74023438 99.5234375 C-1.8694719 97.29696921 -1.99713462 95.07040882 -2.12304688 92.84375 C-3.17602323 76.79786563 -3.17602323 76.79786563 -11.47265625 63.640625 C-20.91854085 56.58216178 -35.2350715 56.68957487 -46.57421875 56.2109375 C-49.49285809 56.03122653 -52.15897896 55.66272384 -55 55 C-55 54.67 -55 54.34 -55 54 C-53.85954224 53.93268677 -53.85954224 53.93268677 -52.69604492 53.86401367 C-49.19235687 53.65040335 -45.69004588 53.41905821 -42.1875 53.1875 C-40.99189453 53.11724609 -39.79628906 53.04699219 -38.56445312 52.97460938 C-27.69079894 52.23389724 -15.36587817 51.11113903 -7.75 42.4375 C-3.3404842 33.77595111 -2.45438147 24.57683495 -1.875 15 C-1.7298013 12.79145135 -1.58151124 10.58310311 -1.4296875 8.375 C-1.37022949 7.41335937 -1.31077148 6.45171875 -1.24951172 5.4609375 C-1 3 -1 3 0 0 Z " fill="#ffffff" transform="translate(3684,211)"/>
</svg>
