<?xml version="1.0" standalone="no"?>
<!DOCTYPE svg PUBLIC "-//W3C//DTD SVG 20010904//EN"
 "http://www.w3.org/TR/2001/REC-SVG-20010904/DTD/svg10.dtd">
<svg version="1.0" xmlns="http://www.w3.org/2000/svg"
 width="512.000000pt" height="512.000000pt" viewBox="0 0 512.000000 512.000000"
 preserveAspectRatio="xMidYMid meet">

<g transform="translate(0.000000,512.000000) scale(0.100000,-0.100000)"
fill="#ffffff" stroke="none">
<path d="M4076 4518 c-9 -12 -16 -26 -16 -31 0 -19 -84 -175 -128 -237 -61
-86 -198 -227 -297 -305 -196 -154 -423 -280 -805 -448 -481 -211 -661 -304
-885 -452 -321 -213 -516 -426 -655 -717 -212 -444 -209 -909 7 -1232 29 -44
50 -83 46 -87 -21 -18 -204 -146 -328 -229 -158 -105 -185 -127 -185 -150 0
-23 32 -50 58 -50 21 0 237 141 434 283 l108 78 51 -41 c117 -92 264 -155 450
-191 149 -29 400 -32 564 -5 359 58 671 184 894 362 97 79 269 256 347 360
399 531 588 1253 545 2088 -19 378 -91 975 -123 1013 -17 21 -65 16 -82 -9z
m64 -563 c119 -1053 -31 -1830 -468 -2435 -107 -147 -311 -349 -438 -433 -342
-226 -838 -339 -1233 -281 -171 25 -355 96 -450 173 l-33 27 84 64 c45 35 164
129 262 209 l180 144 190 -4 c319 -7 839 -4 879 4 23 5 43 17 53 32 15 23 15
27 -1 51 l-17 26 -111 -9 c-125 -9 -458 -8 -703 2 l-162 7 157 138 c86 76 228
206 316 289 l160 152 135 -5 c74 -3 260 -9 413 -12 259 -7 278 -6 297 11 25
23 25 50 0 75 -18 18 -33 20 -168 20 -82 0 -244 3 -360 7 l-211 6 152 161 c84
89 179 191 212 228 l60 67 185 36 c102 20 222 43 268 52 66 12 86 20 98 39 12
17 13 27 4 43 -21 40 -38 40 -240 0 -107 -21 -195 -37 -197 -36 -1 1 43 58 98
127 109 136 232 309 322 452 62 99 71 140 36 158 -41 22 -62 4 -143 -126 -66
-106 -285 -406 -371 -509 l-25 -30 0 189 c0 205 -5 226 -56 226 -50 0 -54 -24
-54 -294 l0 -249 -57 -65 c-31 -35 -127 -139 -212 -230 l-156 -166 -6 90 c-4
49 -7 161 -8 249 -1 172 -10 208 -50 213 -12 2 -31 -4 -42 -14 -19 -17 -20
-28 -13 -333 l7 -315 -71 -65 c-231 -214 -398 -367 -482 -439 -78 -68 -96 -79
-103 -66 -5 9 -12 205 -15 435 -3 279 -9 426 -16 441 -15 29 -58 35 -81 11
-17 -17 -18 -41 -11 -413 4 -217 11 -437 14 -489 l7 -94 -115 -94 c-179 -146
-397 -313 -409 -313 -33 0 -138 197 -172 325 -33 120 -33 379 -1 524 73 328
241 616 478 822 264 229 526 377 1133 640 362 157 620 301 816 454 112 87 271
255 341 360 l59 89 12 -84 c7 -47 21 -166 33 -265z"/>
</g>
</svg>
