<?xml version="1.0" standalone="no"?>
<!DOCTYPE svg PUBLIC "-//W3C//DTD SVG 20010904//EN"
 "http://www.w3.org/TR/2001/REC-SVG-20010904/DTD/svg10.dtd">
<svg version="1.0" xmlns="http://www.w3.org/2000/svg"
 width="512.000000pt" height="512.000000pt" viewBox="0 0 512.000000 512.000000"
 preserveAspectRatio="xMidYMid meet">

<g transform="translate(0.000000,512.000000) scale(0.100000,-0.100000)"
fill="#000000" stroke="none">
<path d="M3827 3513 c-114 -180 -175 -269 -272 -398 -62 -82 -129 -168 -148
-190 l-36 -40 -1 183 c0 106 -4 191 -10 203 -13 23 -62 26 -84 3 -14 -13 -16
-52 -16 -271 l0 -255 -97 -107 c-53 -58 -149 -160 -213 -227 l-118 -120 -7
255 c-8 279 -11 291 -65 291 -53 0 -54 -4 -46 -343 l7 -312 -108 -105 c-126
-122 -284 -267 -434 -397 l-106 -92 -7 52 c-3 29 -9 228 -12 442 -6 329 -9
393 -22 408 -17 20 -62 23 -80 5 -15 -15 -16 -472 -1 -783 10 -211 9 -220 -9
-235 -11 -8 -96 -76 -188 -151 -249 -200 -517 -399 -709 -528 -190 -127 -215
-147 -215 -171 0 -22 31 -50 57 -50 54 0 662 435 1036 742 l122 100 335 -9
c525 -13 748 -5 781 28 23 23 24 52 5 72 -12 12 -66 14 -338 10 -178 -2 -397
0 -487 4 l-163 8 103 90 c135 116 332 297 435 398 l82 79 419 -7 c387 -7 420
-6 436 9 22 22 22 59 0 78 -15 13 -73 17 -358 23 -187 3 -348 9 -358 11 -13 4
19 43 142 172 87 92 181 192 207 223 l49 56 260 49 c284 54 314 65 301 117
-12 50 -30 51 -229 12 -100 -19 -189 -35 -196 -35 -7 0 8 26 34 58 153 189
390 526 426 606 17 36 -10 76 -51 76 -23 0 -35 -8 -53 -37z"/>
</g>
</svg>
